<?xml version="1.0" encoding="utf-8"?>
<!-- Generator: Adobe Illustrator 22.1.0, SVG Export Plug-In . SVG Version: 6.00 Build 0)  -->
<svg version="1.1" id="图层_1" xmlns="http://www.w3.org/2000/svg" xmlns:xlink="http://www.w3.org/1999/xlink" x="0px" y="0px"
	 viewBox="0 0 780 781" style="enable-background:new 0 0 780 781;" xml:space="preserve">
<style type="text/css">
	.st0{fill:url(#Rectangle-16_1_);}
	.st1{fill:#79B0DB;}
	.st2{fill:#96C4F9;}
	.st3{fill:#7EC3D1;}
	.st4{fill:#72697D;}
	.st5{fill:#877261;}
	.st6{fill:#B87A2C;}
	.st7{fill:#AD7329;}
	.st8{fill:#DE8F36;}
	.st9{fill:#C98631;}
	.st10{fill:#4E3C38;}
	.st11{fill:#664E49;}
	.st12{fill:#EFF5FF;}
	.st13{fill:#CDD4E1;}
	.st14{fill:#5C4250;}
	.st15{fill:#694C5B;}
	.st16{fill:#E36F32;}
	.st17{fill:#F47A3B;}
	.st18{fill:#C2542E;}
	.st19{fill:#B7DFD4;}
	.st20{filter:url(#Adobe_OpacityMaskFilter);}
	.st21{fill:#FFFFFF;}
	.st22{display:none;mask:url(#mask-3_1_);fill:#A8D7CB;}
	.st23{filter:url(#Adobe_OpacityMaskFilter_1_);}
	.st24{opacity:0.2004;mask:url(#mask-3_2_);fill:#48766B;enable-background:new    ;}
	.st25{fill:#6A4C5B;}
	.st26{fill:#FFAE3E;}
	.st27{fill:#A7483B;}
	.st28{fill:#E06442;}
	.st29{fill:#855F70;}
	.st30{fill:#363837;}
	.st31{fill:#E3E2B3;}
	.st32{fill:#CCCBA1;}
	.st33{fill:#92A6ED;}
	.st34{fill:#B5B48F;}
	.st35{fill:none;stroke:#B5B48F;stroke-linecap:round;}
	.st36{display:none;}
	.st37{display:inline;fill:#323232;}
	.st38{font-family:'ArialMT';}
	.st39{font-size:23px;}
	.st40{fill:#D55F3C;}
</style>
<title>Application2</title>
<desc>Created with Sketch.</desc>
<g id="Page-1">
	<g id="Artboard-9-Copy">
		<g id="Application2" transform="translate(-1.000000, 0.000000)">
			
				<linearGradient id="Rectangle-16_1_" gradientUnits="userSpaceOnUse" x1="-316.0928" y1="1098.7462" x2="-316.0928" y2="1097.9156" gradientTransform="matrix(781 0 0 -781 247259 858253.125)">
				<stop  offset="0" style="stop-color:#98B8FF"/>
				<stop  offset="1" style="stop-color:#8CFFD5"/>
			</linearGradient>
			<rect id="Rectangle-16" y="0" class="st0" width="781" height="781"/>
			
				<g id="Group-3-Copy" transform="translate(342.000000, 388.000000) scale(-1, 1) translate(-342.000000, -388.000000) translate(102.000000, 281.000000)">
				<polygon id="Rectangle-47" class="st1" points="0,0 459,0 480,214 0,214 				"/>
				<rect id="Rectangle" x="176" y="43" class="st2" width="258" height="-18"/>
				<rect id="Rectangle-Copy" x="288" y="150" class="st2" width="145" height="-71"/>
			</g>
			<path id="Rectangle-48-Copy" class="st3" d="M139.3,543.3c26,11,28.2,10.3,39.4,0c11-10.1,7-50.6,18.9-79.3
				c9.9-23.9,72.2,79,87.3,59.3c19.9-26.1-6.1-171.9,16.1-175.2c34.6-5.2,29.2,186.2,97,186.4c19.6,0.1,44.7-131.8,87.7-158.7
				c19.7-12.3,53.3,128.4,105.1,158.7c12,7,67.5-10.6,79.1-11.2c14.7-0.7,27.1,18.2,37.3,56.8h-20H74
				C88.5,543.3,110.2,531,139.3,543.3z"/>
			<path id="Rectangle-65" class="st4" d="M259.5,200L259.5,200c5.8,0,10.5,4.7,10.5,10.5v382c0,5.8-4.7,10.5-10.5,10.5l0,0
				c-5.8,0-10.5-4.7-10.5-10.5v-382C249,204.7,253.7,200,259.5,200z"/>
			<path id="Rectangle-65_1_" class="st4" d="M465.4,187.4L465.4,187.4c0.5,2.4-1,4.8-3.5,5.3l-238.7,50.7c-2.4,0.5-4.8-1-5.3-3.5
				l0,0c-0.5-2.4,1-4.8,3.5-5.3l238.7-50.7C462.5,183.4,464.9,185,465.4,187.4z"/>
			<path id="Rectangle-52" class="st5" d="M60,580h662l0,0c0,12.7-10.3,23-23,23H83C70.3,603,60,592.7,60,580z"/>
			<g id="Group-33" transform="translate(113.000000, 345.000000)">
				<g id="Group-36-Copy-3" transform="translate(27.000000, 166.000000)">
					<rect id="Rectangle-59" x="7" y="13" class="st6" width="18" height="56"/>
					<polygon id="Rectangle-59-Copy-3" class="st7" points="0.9,0 18,0 24.1,13 7,13 					"/>
					<rect id="Rectangle-59-Copy" x="24" y="13" class="st8" width="48" height="56"/>
					<polygon id="Rectangle-59-Copy_1_" class="st9" points="24,58.6 72,26.6 72,69 24,69 					"/>
					<polygon id="Rectangle-59-Copy-2" class="st9" points="29.2,0 77.2,0 72,13 24,13 					"/>
				</g>
				<g id="Group-28" transform="translate(381.000000, 179.000000)">
					<path id="Oval-26-Copy" class="st10" d="M28,56c1.9,0,4.7,0,8.5,0C47.9,52.5,56,40.6,56,28c0-12.9-7.7-24.7-19.5-28
						c-3.9,0-6.7,0-8.5,0C12.5,0,0,12.5,0,28S12.5,56,28,56z"/>
					<circle id="Oval-26" class="st11" cx="36" cy="28" r="28"/>
					<circle id="Oval-26-Copy-2" class="st10" cx="36" cy="28" r="18"/>
				</g>
				<g id="Group-28-Copy" transform="translate(155.000000, 179.000000)">
					<path id="Oval-26-Copy_1_" class="st10" d="M28,56c1.9,0,4.7,0,8.5,0C47.9,52.5,56,40.6,56,28c0-12.9-7.7-24.7-19.5-28
						c-3.9,0-6.7,0-8.5,0C12.5,0,0,12.5,0,28S12.5,56,28,56z"/>
					<circle id="Oval-26_1_" class="st11" cx="36" cy="28" r="28"/>
					<circle id="Oval-26-Copy-2_1_" class="st10" cx="36" cy="28" r="18"/>
				</g>
				<g id="Group-31" transform="translate(108.000000, 0.000000)">
					<path id="Rectangle-54" class="st12" d="M92,0h209c1.7,0,3,1.3,3,3v189H92V0z"/>
					<path id="Rectangle-54-Copy" class="st13" d="M3,0h90v192H0V3C0,1.3,1.3,0,3,0z"/>
					<polygon id="Rectangle-54-Copy-2" class="st14" points="15,17 78,17 78,192 15,192 					"/>
					<polygon id="Rectangle-54-Copy-2_1_" class="st15" points="78,192 15,17 78,17 					"/>
				</g>
				<g id="Group-30" transform="translate(412.000000, 32.000000)">
					<g id="Group-41">
						<g id="Group-39">
							<path id="Rectangle-61-Copy" class="st16" d="M15,18h15h44.9c12,0,18,8.6,19,11.4l17.2,53.1c14.7,3.9,43.8,8.8,43.8,29.9V160
								H15V18z"/>
							<path id="Rectangle-61-Copy_1_" class="st17" d="M15,18h15h44.9c12,0,18,8.6,19,11.4l17.2,53.1c14.7,3.9,43.8,8.8,43.8,29.9
								H15V18z"/>
							<path id="Rectangle-62" class="st16" d="M26,24h14c2.2,0,4,1.8,4,4v51c0,2.2-1.8,4-4,4H26c-2.2,0-4-1.8-4-4V28
								C22,25.8,23.8,24,26,24z"/>
							<path id="Rectangle-62-Copy-2" class="st18" d="M0,0h31c9.9,0,18,8.1,18,18H0V0z"/>
							<g id="Rectangle-62-Copy" transform="translate(49.000000, 24.000000)">
								<g id="Mask">
									<path id="path-2_1_" class="st19" d="M4,0h23c5.6,0,10.6,3.6,12.4,9L54,53.8c0.7,2.1-0.5,4.4-2.6,5
										C51,58.9,50.6,59,50.2,59L4,59c-2.2,0-4-1.8-4-4c0,0,0,0,0,0L0,4C0,1.8,1.8,0,4,0z"/>
								</g>
								<defs>
									<filter id="Adobe_OpacityMaskFilter" filterUnits="userSpaceOnUse" x="0" y="4" width="70.9" height="90">
										<feColorMatrix  type="matrix" values="1 0 0 0 0  0 1 0 0 0  0 0 1 0 0  0 0 0 1 0"/>
									</filter>
								</defs>
								<mask maskUnits="userSpaceOnUse" x="0" y="4" width="70.9" height="90" id="mask-3_1_">
									<g class="st20">
										<path id="path-2_2_" class="st21" d="M4,0h23c5.6,0,10.6,3.6,12.4,9L54,53.8c0.7,2.1-0.5,4.4-2.6,5
											C51,58.9,50.6,59,50.2,59L4,59c-2.2,0-4-1.8-4-4c0,0,0,0,0,0L0,4C0,1.8,1.8,0,4,0z"/>
									</g>
								</mask>
								<polygon class="st22" points="39.6,4 70.9,25.9 47.8,94 0,60.5 								"/>
								<defs>
									<filter id="Adobe_OpacityMaskFilter_1_" filterUnits="userSpaceOnUse" x="0" y="44" width="58.3" height="69">
										<feColorMatrix  type="matrix" values="1 0 0 0 0  0 1 0 0 0  0 0 1 0 0  0 0 0 1 0"/>
									</filter>
								</defs>
								<mask maskUnits="userSpaceOnUse" x="0" y="44" width="58.3" height="69" id="mask-3_2_">
									<g class="st23">
										<path id="path-2_3_" class="st21" d="M4,0h23c5.6,0,10.6,3.6,12.4,9L54,53.8c0.7,2.1-0.5,4.4-2.6,5
											C51,58.9,50.6,59,50.2,59L4,59c-2.2,0-4-1.8-4-4c0,0,0,0,0,0L0,4C0,1.8,1.8,0,4,0z"/>
									</g>
								</mask>
								<polygon class="st24" points="0,44 58.3,44 58.3,113 0,113 								"/>
							</g>
						</g>
						<g id="Group-40" transform="translate(89.000000, 25.000000)">
							<path id="Rectangle-63-Copy-2" class="st25" d="M13,0h8.4c2.1,0,4,1.4,4.7,3.4l6.6,19.5c0.2,0.5-0.1,1.1-0.6,1.3
								c-0.1,0-0.2,0.1-0.3,0.1H21.2L13,0z"/>
							<path id="Rectangle-63" class="st17" d="M2,0h20c1.1,0,2,0.9,2,2l0,0c0,1.1-0.9,2-2,2H2C0.9,4,0,3.1,0,2l0,0C0,0.9,0.9,0,2,0
								z"/>
							<path id="Rectangle-63-Copy" class="st17" d="M16,0h8.4c2.1,0,4,1.4,4.7,3.4l6.6,19.5c0.2,0.5-0.1,1.1-0.6,1.3
								c-0.1,0-0.2,0.1-0.3,0.1H24.2L16,0z"/>
						</g>
						<path id="Rectangle-64" class="st26" d="M135,140h21c2.8,0,5,2.2,5,5v4c0,2.8-2.2,5-5,5h-21V140z"/>
						<path id="Rectangle-64-Copy" class="st27" d="M155,133h-15.5c-0.8,0-1.5,0.7-1.5,1.5l0,0c0,0.8,0.7,1.5,1.5,1.5H155V133z"/>
						<path id="Rectangle-64-Copy-2" class="st27" d="M155,119h-15.5c-0.8,0-1.5,0.7-1.5,1.5l0,0c0,0.8,0.7,1.5,1.5,1.5H155V119z"/>
						<path id="Rectangle-64-Copy-3" class="st27" d="M155,126h-15.5c-0.8,0-1.5,0.7-1.5,1.5l0,0c0,0.8,0.7,1.5,1.5,1.5H155V126z"/>
					</g>
					<rect id="Rectangle-61" y="18" class="st28" width="15" height="142"/>
				</g>
				<g id="Group-29" transform="translate(102.000000, 192.000000)">
					<path id="Rectangle-53-Copy" class="st15" d="M310,0h139c3.9,0,7,3.1,7,7v4c0,3.9-3.1,7-7,7H310V0z"/>
					<path id="Rectangle-53-Copy-2" class="st29" d="M310,0H7C3.1,0,0,3.1,0,7v4c0,3.9,3.1,7,7,7h303V0z"/>
					<path id="Rectangle-53-Copy-2_1_" class="st15" d="M91,0H7C3.1,0,0,3.1,0,7v4c0,3.9,3.1,7,7,7h84c3.9,0,7-3.1,7-7V7
						C98,3.1,94.9,0,91,0z"/>
					<path id="Rectangle-53" class="st29" d="M325,0h139c3.9,0,7,3.1,7,7v4c0,3.9-3.1,7-7,7H325V0z"/>
				</g>
				<path id="Oval-27" class="st30" d="M529,210c0-22.1-17.9-40-40-40s-40,17.9-40,40H529z"/>
				<g id="Group-27" transform="translate(458.000000, 179.000000)">
					<path id="Oval-26-Copy_2_" class="st10" d="M28,56c1.9,0,4.7,0,8.5,0C47.9,52.5,56,40.6,56,28c0-12.9-7.7-24.7-19.5-28
						c-3.9,0-6.7,0-8.5,0C12.5,0,0,12.5,0,28S12.5,56,28,56z"/>
					<circle id="Oval-26_2_" class="st11" cx="36" cy="28" r="28"/>
					<circle id="Oval-26-Copy-2_2_" class="st31" cx="36" cy="28" r="18"/>
					<circle id="Oval-26-Copy-3" class="st32" cx="36" cy="28" r="10"/>
				</g>
				<path id="Oval-27-Copy" class="st30" d="M316,210c0-22.1-17.9-40-40-40s-40,17.9-40,40H316z"/>
				<g id="Group-27-Copy" transform="translate(244.000000, 179.000000)">
					<path id="Oval-26-Copy_3_" class="st10" d="M28,56c1.9,0,4.7,0,8.5,0C47.9,52.5,56,40.6,56,28c0-12.9-7.7-24.7-19.5-28
						c-3.9,0-6.7,0-8.5,0C12.5,0,0,12.5,0,28S12.5,56,28,56z"/>
					<circle id="Oval-26_3_" class="st11" cx="36" cy="28" r="28"/>
					<circle id="Oval-26-Copy-2_3_" class="st31" cx="36" cy="28" r="18"/>
					<circle id="Oval-26-Copy-3_1_" class="st32" cx="36" cy="28" r="10"/>
				</g>
				<rect id="Rectangle-55" x="201" y="18" class="st33" width="211" height="5"/>
				<rect id="Rectangle-55-Copy" x="201" y="164" class="st33" width="211" height="5"/>
				<g id="Group-32" transform="translate(60.000000, 186.000000)">
					<polygon id="Rectangle-56" class="st31" points="61.7,0 128.7,0 67,42 0,42 					"/>
					<rect id="Rectangle-57" y="42" class="st34" width="67" height="7"/>
					<polygon id="Rectangle-57-Copy" class="st32" points="67,42 128.7,0 128.7,7 67,49 					"/>
				</g>
				<path id="Line-71" class="st35" d="M77.5,222.5h50"/>
				<path id="Line-71-Copy" class="st35" d="M92.5,212.5h50"/>
				<path id="Line-71-Copy-2" class="st35" d="M106.5,202.5h50"/>
				<path id="Line-71-Copy-3" class="st35" d="M122.5,192.5h50"/>
				<g id="Group" transform="translate(246.000000, 55.000000)" class="st36">
					<path id="logo-copy-2" class="st37" d="M9.2,0c2.3,0,4.2,1.9,4.2,4.2v51.7c0,2.3-1.9,4.2-4.2,4.2S5,58.1,5,55.8V4.2
						C5,1.9,6.9,0,9.2,0z M49.1,0c2.3,0,4.2,1.9,4.2,4.2v51.7c0,2.3-1.9,4.2-4.2,4.2c-2.3,0-4.2-1.9-4.2-4.2V4.2
						C44.9,1.9,46.8,0,49.1,0z M79,0c2.3,0,4.2,1.9,4.2,4.2v51.7c0,2.3-1.9,4.2-4.2,4.2s-4.2-1.9-4.2-4.2V4.2C74.8,1.9,76.7,0,79,0z
						 M118.9,0c2.3,0,4.2,1.9,4.2,4.2v51.7c0,2.3-1.9,4.2-4.2,4.2s-4.2-1.9-4.2-4.2V4.2C114.7,1.9,116.6,0,118.9,0z M24.1,20
						c2.3,0,4.2,1.9,4.2,4.2v26.7c0,2.3-1.9,4.2-4.2,4.2S20,53.1,20,50.8V24.2C20,21.9,21.8,20,24.1,20z M64,28.3
						c2.3,0,4.2,1.9,4.2,4.2v23.4c0,2.3-1.9,4.2-4.2,4.2c-2.3,0-4.2-1.9-4.2-4.2V32.5C59.9,30.2,61.7,28.3,64,28.3z M107.2,36.7
						c2.3,0,4.2,1.9,4.2,4.2v15c0,2.3-1.9,4.2-4.2,4.2s-4.2-1.9-4.2-4.2v-15C103.1,38.5,104.9,36.7,107.2,36.7z M133.8,0
						c2.3,0,4.2,1.9,4.2,4.2v15c0,2.3-1.9,4.2-4.2,4.2s-4.2-1.9-4.2-4.2v-15C129.7,1.9,131.5,0,133.8,0z"/>
					<text transform="matrix(1 0 0 1 0 87)" class="st37 st38 st39">DIMENSION</text>
				</g>
				<g id="Group-36" transform="translate(231.000000, 147.000000)">
					<rect id="Rectangle-59_1_" y="0" class="st6" width="26" height="88"/>
					<rect id="Rectangle-59-Copy_2_" x="25" y="0" class="st8" width="26" height="88"/>
				</g>
				<g id="Group-37" transform="translate(139.000000, 106.000000)">
					<g id="Group-36-Copy-4" transform="translate(0.000000, 32.000000)">
						<rect id="Rectangle-59_2_" y="0" class="st6" width="18" height="48"/>
						<rect id="Rectangle-59-Copy_3_" x="17" y="0" class="st8" width="32" height="48"/>
					</g>
					<g id="Group-36-Copy-5" transform="translate(14.000000, 0.000000)">
						<rect id="Rectangle-59_3_" y="0" class="st6" width="24" height="32"/>
						<rect id="Rectangle-59-Copy_4_" x="24" y="0" class="st8" width="11" height="32"/>
						<polygon id="Rectangle-59-Copy_5_" class="st9" points="28.4,0 35,0 35,80 17.5,80 						"/>
					</g>
				</g>
				<g id="Group-36-Copy-2" transform="translate(0.000000, 201.000000)">
					<rect id="Rectangle-59_4_" y="0" class="st6" width="16" height="34"/>
					<rect id="Rectangle-59-Copy_6_" x="15" y="0" class="st8" width="28" height="34"/>
				</g>
				<g id="Group-36-Copy" transform="translate(170.000000, 181.000000)">
					<rect id="Rectangle-59_5_" y="0" class="st6" width="26" height="54"/>
					<rect id="Rectangle-59-Copy_7_" x="25" y="0" class="st8" width="55" height="54"/>
					<polygon id="Rectangle-59-Copy_8_" class="st9" points="80,0 80,54 25,54 37.7,41.5 37.7,33.2 46.2,33.2 					"/>
				</g>
				<g id="Group-35" transform="translate(210.000000, 217.000000)">
					<rect id="Rectangle-58" y="0" class="st6" width="13" height="18"/>
					<rect id="Rectangle-58-Copy" x="13" y="0" class="st8" width="67" height="18"/>
				</g>
				<path id="Rectangle-60" class="st40" d="M109,160h14v15h-14c-1.7,0-3-1.3-3-3v-9C106,161.3,107.3,160,109,160z"/>
				<g id="Group-38" transform="translate(188.000000, 160.000000)">
					<rect id="Rectangle-60-Copy" y="0" class="st40" width="13" height="15"/>
					<path id="Rectangle-60-Copy-2" class="st17" d="M13,0h15c1.7,0,3,1.3,3,3v9c0,1.7-1.3,3-3,3H13V0z"/>
				</g>
			</g>
			<g id="Group-36-Copy-3_1_" transform="translate(434.000000, 535.000000)">
				<rect id="Rectangle-59_6_" x="8" y="17" class="st6" width="24" height="73"/>
				<polygon id="Rectangle-59-Copy-3_1_" class="st7" points="0,0 22.1,0 30,17 7.9,17 				"/>
				<rect id="Rectangle-59-Copy_9_" x="30" y="17" class="st8" width="63" height="73"/>
				<polygon id="Rectangle-59-Copy_10_" class="st9" points="30,76.4 93,35 93,90 30,90 				"/>
				<polygon id="Rectangle-59-Copy-2_1_" class="st9" points="36.9,0 100,0 93.1,17 30,17 				"/>
			</g>
			<path id="Oval-28" class="st21" d="M425.3,213.2c10.3-2.2,17.4-9.4,16-16.2c-1.4-6.8-38.6,1.1-37.2,7.9
				C405.5,211.7,415,215.4,425.3,213.2z"/>
		</g>
	</g>
</g>
</svg>
