<?xml version="1.0" encoding="UTF-8"?>
<svg width="781px" height="781px" viewBox="0 0 781 781" version="1.1" xmlns="http://www.w3.org/2000/svg" xmlns:xlink="http://www.w3.org/1999/xlink">
    <!-- Generator: Sketch 50.2 (55047) - http://www.bohemiancoding.com/sketch -->
    <title>Applocation1</title>
    <desc>Created with Sketch.</desc>
    <defs>
        <linearGradient x1="50%" y1="0%" x2="50%" y2="100%" id="linearGradient-1">
            <stop stop-color="#A4B4FF" offset="0%"></stop>
            <stop stop-color="#BD8CFF" offset="100%"></stop>
        </linearGradient>
        <rect id="path-2" x="0" y="0" width="200" height="31"></rect>
        <rect id="path-4" x="0" y="0" width="200" height="31"></rect>
        <rect id="path-6" x="0" y="0" width="189" height="76"></rect>
    </defs>
    <g id="Page-1" stroke="none" stroke-width="1" fill="none" fill-rule="evenodd">
        <g id="Artboard-9">
            <g id="Applocation1">
                <rect id="Rectangle-16" fill="url(#linearGradient-1)" x="0" y="0" width="781" height="781"></rect>
                <path d="M164.272464,514.317995 C190.257762,525.338418 192.455202,524.631839 203.699815,514.317995 C214.693563,504.234251 210.739576,463.762493 222.580519,435.051842 C232.446228,411.130526 294.809641,514.038586 309.867991,494.309487 C329.807818,468.18479 303.765549,322.430154 325.96067,319.103684 C360.589779,313.913684 355.207077,505.291084 422.923215,505.473032 C442.485393,505.525594 467.58625,373.647535 510.59998,346.807571 C530.297102,334.516843 563.895184,475.16884 615.680425,505.473032 C627.721221,512.519183 683.213715,494.848438 694.752673,494.309487 C709.433465,493.623791 721.860303,512.55519 732.033188,551.103684 L712,551.103684 L99,551.103684 C113.457684,514.256629 135.215172,501.994733 164.272464,514.317995 Z" id="Rectangle-48" fill="#9F92EC"></path>
                <g id="Group-4" transform="translate(538.000000, 135.000000)">
                    <circle id="Oval-5" fill="#1B1D27" cx="65.5" cy="66.5" r="42.5"></circle>
                    <path d="M65,130 C29.1014913,130 0,100.898509 0,65 C0,29.1014913 29.1014913,0 65,0 C100.898509,0 130,29.1014913 130,65 C130,100.898509 100.898509,130 65,130 Z M65.5034014,43.3469388 C74.9561118,43.3469388 82.6190476,35.6840029 82.6190476,26.2312925 C82.6190476,16.7785821 74.9561118,9.11564626 65.5034014,9.11564626 C56.0506909,9.11564626 48.3877551,16.7785821 48.3877551,26.2312925 C48.3877551,35.6840029 56.0506909,43.3469388 65.5034014,43.3469388 Z M84.9121094,54.9251701 C89.6384646,63.1114574 100.10623,65.9162866 108.292517,61.1899314 C116.478804,56.4635762 119.283634,45.9958112 114.557278,37.8095238 C109.830923,29.6232365 99.3631581,26.8184073 91.1768707,31.5447625 C82.9905834,36.2711177 80.1857542,46.7388827 84.9121094,54.9251701 Z M84.9121094,78.0816327 C80.1857542,86.26792 82.9905834,96.735685 91.1768707,101.46204 C99.3631581,106.188395 109.830923,103.383566 114.557278,95.1972789 C119.283634,87.0109916 116.478804,76.5432265 108.292517,71.8168713 C100.10623,67.0905161 89.6384646,69.8953453 84.9121094,78.0816327 Z M65.5034014,89.6598639 C56.0506909,89.6598639 48.3877551,97.3227998 48.3877551,106.77551 C48.3877551,116.228221 56.0506909,123.891156 65.5034014,123.891156 C74.9561118,123.891156 82.6190476,116.228221 82.6190476,106.77551 C82.6190476,97.3227998 74.9561118,89.6598639 65.5034014,89.6598639 Z M45.0878906,78.0816327 C40.3615354,69.8953453 29.8937703,67.0905161 21.707483,71.8168713 C13.5211956,76.5432265 10.7163665,87.0109916 15.4427217,95.1972789 C20.1690769,103.383566 30.6368419,106.188395 38.8231293,101.46204 C47.0094166,96.735685 49.8142458,86.26792 45.0878906,78.0816327 Z M45.0878906,54.9251701 C49.8142458,46.7388827 47.0094166,36.2711177 38.8231293,31.5447625 C30.6368419,26.8184073 20.1690769,29.6232365 15.4427217,37.8095238 C10.7163665,45.9958112 13.5211956,56.4635762 21.707483,61.1899314 C29.8937703,65.9162866 40.3615354,63.1114574 45.0878906,54.9251701 Z" id="Combined-Shape" fill="#FFAE5C"></path>
                </g>
                <rect id="Rectangle-42" fill="#211D3E" x="341" y="484" width="99" height="60"></rect>
                <path d="M353,487 L428,487 L428,489 C428,521.032515 402.032515,547 370,547 L353,547 L353,487 Z" id="Rectangle-42-Copy-2" fill="#343453"></path>
                <ellipse id="Oval-25-Copy" fill="#998CE3" cx="390.5" cy="564" rx="212.5" ry="10"></ellipse>
                <ellipse id="Oval-25-Copy-2" fill="#998CE3" cx="555" cy="588" rx="139" ry="10"></ellipse>
                <g id="Group-3" transform="translate(223.000000, 230.000000)">
                    <polygon id="Rectangle-47" fill="#9285E5" points="21 0 480 0 500.952865 214 21 214"></polygon>
                    <polygon id="Rectangle-47-Copy" fill="#B0A3FF" points="0 32 459 32 469.170583 183 0 183"></polygon>
                    <rect id="Rectangle-4" fill="#B0A3FF" x="380" y="6" width="10" height="21"></rect>
                    <rect id="Rectangle-4-Copy-6" fill="#B0A3FF" x="380" y="188" width="10" height="21"></rect>
                    <rect id="Rectangle-4-Copy-2" fill="#B0A3FF" x="414" y="6" width="10" height="21"></rect>
                    <rect id="Rectangle-4-Copy-7" fill="#B0A3FF" x="414" y="188" width="10" height="21"></rect>
                    <rect id="Rectangle-4-Copy-4" fill="#B0A3FF" x="448" y="6" width="10" height="21"></rect>
                    <rect id="Rectangle-4-Copy-8" fill="#B0A3FF" x="448" y="188" width="10" height="21"></rect>
                    <rect id="Rectangle-4-Copy" fill="#B0A3FF" x="397" y="6" width="10" height="21"></rect>
                    <rect id="Rectangle-4-Copy-9" fill="#B0A3FF" x="397" y="188" width="10" height="21"></rect>
                    <rect id="Rectangle-4-Copy-3" fill="#B0A3FF" x="431" y="6" width="10" height="21"></rect>
                    <rect id="Rectangle-4-Copy-10" fill="#B0A3FF" x="431" y="188" width="10" height="21"></rect>
                    <rect id="Rectangle-4-Copy-5" fill="#B0A3FF" x="465" y="6" width="10" height="21"></rect>
                    <rect id="Rectangle-4-Copy-11" fill="#B0A3FF" x="465" y="188" width="10" height="21"></rect>
                    <rect id="Rectangle-4-Copy-12" fill="#B0A3FF" x="482" y="188" width="10" height="21"></rect>
                </g>
                <ellipse id="Oval-25-Copy-3" fill="#3D3671" transform="translate(209.021024, 474.816562) rotate(109.000000) translate(-209.021024, -474.816562) " cx="209.021024" cy="474.816562" rx="94.5" ry="4.5"></ellipse>
                <ellipse id="Oval-25-Copy-5" fill="#3D3671" transform="translate(267.021024, 473.816562) scale(-1, 1) rotate(109.000000) translate(-267.021024, -473.816562) " cx="267.021024" cy="473.816562" rx="94.5" ry="4.5"></ellipse>
                <ellipse id="Oval-25-Copy-4" fill="#3D3671" transform="translate(238.280906, 475.532600) rotate(90.000000) translate(-238.280906, -475.532600) " cx="238.280906" cy="475.5326" rx="94.5" ry="4.5"></ellipse>
                <g id="Group-5" transform="translate(159.000000, 135.000000)">
                    <path d="M122.094749,16.0092286 L134.132767,16.0888337 C137.110879,16.1085273 139.623813,18.309727 140.035491,21.2593141 L141.697966,33.1706117 C142.156024,36.4525085 139.866851,39.4843413 136.584954,39.9423998 C136.310156,39.9807537 136.033028,40 135.755566,40 L120.26246,40 C116.948752,40 114.26246,37.3137085 114.26246,34 C114.26246,33.7030662 114.284502,33.4065421 114.328405,33.1128719 L116.121019,21.1219694 C116.562536,18.1686347 119.10866,15.9894822 122.094749,16.0092286 Z" id="Rectangle-5-Copy-3" fill="#3B3B5F"></path>
                    <path d="M27.6494118,71.0070186 C25.7248804,70.9971614 24.0661539,72.3592156 23.7014157,74.2488939 L20.4214874,91.2419277 C20.37327,91.491738 20.3489963,91.7455789 20.3489963,92 C20.3489963,94.209139 22.1398573,96 24.3489963,96 L55.6752926,96 C55.9131656,96 56.1505645,95.9787812 56.384667,95.936596 C58.5587889,95.5448193 60.0036652,93.4647475 59.6118885,91.2906256 L56.5728253,74.4256754 C56.2309452,72.528449 54.5844748,71.144976 52.6567164,71.1351023 L27.6494118,71.0070186 Z" id="Rectangle-5-Copy-5" stroke="#211D3E" stroke-width="4" fill="#3B3B5F"></path>
                    <rect id="Rectangle-5-Copy-4" stroke="#211D3E" fill="#3B3B5F" x="89.5" y="10.5" width="80" height="14" rx="6"></rect>
                    <path d="M61.498228,29 C83.8647818,29 102.293608,29 101.996456,16 C101.699304,3 83.8647818,3 61.498228,3 C39.1316743,3 21,8.82029825 21,16 C21,23.1797017 39.1316743,29 61.498228,29 Z" id="Oval-6" stroke="#211D3E" fill="#3B3B5F"></path>
                    <path d="M170.498925,29.1373614 C175.522826,30.5330056 180.113801,32.2636964 179.99785,16.405573 C179.881898,0.547449701 175.488693,2.7070994 170.498925,3.67378468 C165.509157,4.64046996 161,9.37400049 161,16.405573 C161,23.4371456 165.475023,27.7417172 170.498925,29.1373614 Z" id="Oval-6-Copy" stroke="#211D3E" fill="#3B3B5F" transform="translate(170.500000, 16.500000) rotate(-16.000000) translate(-170.500000, -16.500000) "></path>
                    <path d="M68,34 L172,34 C185.807119,34 197,45.1928813 197,59 L197,100 C197,113.254834 186.254834,124 173,124 L68,124 C58.6111593,124 51,116.388841 51,107 L51,51 C51,41.6111593 58.6111593,34 68,34 Z" id="Rectangle-49" fill="#211D3E"></path>
                    <path d="M70,54 L145,54 C149.418278,54 153,57.581722 153,62 L153,112 C153,116.418278 149.418278,120 145,120 L70,120 C65.581722,120 62,116.418278 62,112 L62,62 C62,57.581722 65.581722,54 70,54 Z M79.5403226,60.6 C75.1220446,60.6 71.5403226,64.181722 71.5403226,68.6 L71.5403226,92.2 C71.5403226,96.618278 75.1220446,100.2 79.5403226,100.2 L136.193548,100.2 C140.611826,100.2 144.193548,96.618278 144.193548,92.2 L144.193548,68.6 C144.193548,64.181722 140.611826,60.6 136.193548,60.6 L79.5403226,60.6 Z" id="Combined-Shape" fill="#FFFFFF" opacity="0.093580163"></path>
                    <rect id="Rectangle-5-Copy" fill="#FFFFFF" opacity="0.093580163" x="159" y="54" width="29" height="40" rx="6"></rect>
                    <path d="M15.1224374,50.9132736 C14.5891989,50.565593 13.9712355,50.3699236 13.3350637,50.347327 C11.4032853,50.2787108 9.78164507,51.7891021 9.71302884,53.7208805 L7.57375583,113.948633 C7.54831145,114.664978 7.74342392,115.371863 8.13271829,115.973733 C9.18253418,117.596805 11.3493379,118.061521 12.9724098,117.011705 L37.9008598,100.887785 C38.8979266,100.242874 39.5,99.1364092 39.5,97.948953 L39.5,68.7040513 C39.5,67.5211454 38.9025001,66.418278 37.9116144,65.7722037 L15.1224374,50.9132736 Z" id="Rectangle-50-Copy" stroke="#211D3E" fill="#3B3B5F"></path>
                    <rect id="Rectangle-50" stroke="#211D3E" fill="#3B3B5F" x="0.5" y="43.5" width="14" height="80" rx="4"></rect>
                    <circle id="Oval-24" fill="#FF6969" cx="72.5" cy="45.5" r="3.5"></circle>
                    <circle id="Oval-24-Copy" fill="#F57C23" cx="87.5" cy="45.5" r="3.5"></circle>
                    <circle id="Oval-24-Copy-2" fill="#F57C23" cx="101.5" cy="45.5" r="3.5"></circle>
                    <circle id="Oval-24-Copy-3" fill="#FFFFFF" cx="116.5" cy="45.5" r="3.5"></circle>
                </g>
                <g id="Group-3-Copy" transform="translate(341.500000, 372.000000) scale(-1, 1) translate(-341.500000, -372.000000) translate(91.000000, 265.000000)">
                    <polygon id="Rectangle-47" fill="#9285E5" points="21 0 480 0 500.952865 214 21 214"></polygon>
                    <polygon id="Rectangle-47-Copy" fill="#B0A3FF" points="0 32 459 32 469.170583 183 0 183"></polygon>
                    <rect id="Rectangle-4" fill="#B0A3FF" x="380" y="6" width="10" height="21"></rect>
                    <rect id="Rectangle-4-Copy-6" fill="#B0A3FF" x="380" y="188" width="10" height="21"></rect>
                    <rect id="Rectangle-4-Copy-2" fill="#B0A3FF" x="414" y="6" width="10" height="21"></rect>
                    <rect id="Rectangle-4-Copy-7" fill="#B0A3FF" x="414" y="188" width="10" height="21"></rect>
                    <rect id="Rectangle-4-Copy-4" fill="#B0A3FF" x="448" y="6" width="10" height="21"></rect>
                    <rect id="Rectangle-4-Copy-8" fill="#B0A3FF" x="448" y="188" width="10" height="21"></rect>
                    <rect id="Rectangle-4-Copy" fill="#B0A3FF" x="397" y="6" width="10" height="21"></rect>
                    <rect id="Rectangle-4-Copy-9" fill="#B0A3FF" x="397" y="188" width="10" height="21"></rect>
                    <rect id="Rectangle-4-Copy-3" fill="#B0A3FF" x="431" y="6" width="10" height="21"></rect>
                    <rect id="Rectangle-4-Copy-10" fill="#B0A3FF" x="431" y="188" width="10" height="21"></rect>
                    <rect id="Rectangle-4-Copy-5" fill="#B0A3FF" x="465" y="6" width="10" height="21"></rect>
                    <rect id="Rectangle-4-Copy-11" fill="#B0A3FF" x="465" y="188" width="10" height="21"></rect>
                    <rect id="Rectangle-4-Copy-12" fill="#B0A3FF" x="482" y="188" width="10" height="21"></rect>
                </g>
                <rect id="Rectangle-42-Copy" fill="#211D3E" x="285" y="543" width="212" height="20"></rect>
                <rect id="Rectangle-41" stroke="#211D3E" stroke-width="10" fill="#EFEFEF" x="183" y="223" width="415" height="259" rx="10"></rect>
                <circle id="Oval" fill="#FFFFFF" cx="391" cy="337" r="35"></circle>
                <polygon id="Triangle" fill="#EFEFEF" transform="translate(395.000000, 336.500000) rotate(90.000000) translate(-395.000000, -336.500000) " points="395 323.5 411.5 349.5 378.5 349.5"></polygon>
                <rect id="Rectangle-43" stroke="#FFFFFF" stroke-width="9" x="213.5" y="253.5" width="354" height="205"></rect>
                <rect id="Rectangle-43-Copy" fill="#FFFFFF" x="209" y="423" width="363" height="40"></rect>
                <rect id="Rectangle-43-Copy-2" fill="#FFFFFF" x="209" y="410" width="363" height="3"></rect>
                <circle id="Oval-20" fill="#FF6969" cx="244" cy="412" r="7"></circle>
                <rect id="Rectangle-44" fill="#332F52" x="449" y="450" width="200" height="135"></rect>
                <rect id="Rectangle-44-Copy" fill="#332F52" transform="translate(539.895415, 405.643075) rotate(-18.000000) translate(-539.895415, -405.643075) " x="439.895415" y="390.143075" width="200" height="31"></rect>
                <g id="Combined-Shape-Copy" transform="translate(540.000000, 405.500000) rotate(-18.000000) translate(-540.000000, -405.500000) translate(440.000000, 390.000000)">
                    <mask id="mask-3" fill="white">
                        <use xlink:href="#path-2"></use>
                    </mask>
                    <use id="Mask" fill="#332F52" xlink:href="#path-2"></use>
                    <path d="M6.93181319,0 L26.9384982,0 L9.00668498,31 L-11,31 L6.93181319,0 Z M68.9525366,0 L88.9592216,0 L71.0274084,31 L51.0207234,31 L68.9525366,0 Z M129.972926,0 L149.979611,0 L132.047798,31 L112.041113,31 L129.972926,0 Z M37.9421749,0 L57.9488599,0 L40.0170467,31 L20.0103617,31 L37.9421749,0 Z M99.9628984,0 L119.969583,0 L102.03777,31 L82.0310852,31 L99.9628984,0 Z M160.983288,0 L180.989973,0 L163.058159,31 L143.051474,31 L160.983288,0 Z M190.993315,0 L211,0 L193.068187,31 L173.061502,31 L190.993315,0 Z" id="Combined-Shape" fill="#FFFFFF" mask="url(#mask-3)"></path>
                </g>
                <ellipse id="Oval-25" fill="#9F92EC" cx="272.5" cy="607.5" rx="94.5" ry="4.5"></ellipse>
                <g id="Combined-Shape" transform="translate(449.000000, 450.000000)">
                    <mask id="mask-5" fill="white">
                        <use xlink:href="#path-4"></use>
                    </mask>
                    <use id="Mask" fill="#332F52" xlink:href="#path-4"></use>
                    <path d="M6.93181319,0 L26.9384982,0 L9.00668498,31 L-11,31 L6.93181319,0 Z M68.9525366,0 L88.9592216,0 L71.0274084,31 L51.0207234,31 L68.9525366,0 Z M129.972926,0 L149.979611,0 L132.047798,31 L112.041113,31 L129.972926,0 Z M37.9421749,0 L57.9488599,0 L40.0170467,31 L20.0103617,31 L37.9421749,0 Z M99.9628984,0 L119.969583,0 L102.03777,31 L82.0310852,31 L99.9628984,0 Z M160.983288,0 L180.989973,0 L163.058159,31 L143.051474,31 L160.983288,0 Z M190.993315,0 L211,0 L193.068187,31 L173.061502,31 L190.993315,0 Z" fill="#FFFFFF" mask="url(#mask-5)"></path>
                </g>
                <rect id="Rectangle-45" stroke="#FFFFFF" x="469.5" y="496.5" width="160" height="73"></rect>
                <path d="M549.5,496.5 L549.5,568.943081" id="Line" stroke="#FFFFFF" stroke-linecap="square"></path>
                <path d="M470.5,508.5 L628.579094,508.5" id="Line-Copy" stroke="#FFFFFF" stroke-linecap="square"></path>
                <g id="Group-2" transform="translate(223.000000, 325.000000)">
                    <rect id="Rectangle" fill="#5066B4" x="95" y="80" width="6" height="187"></rect>
                    <g id="Oval-21" transform="translate(0.000000, 206.000000)">
                        <mask id="mask-7" fill="white">
                            <use xlink:href="#path-6"></use>
                        </mask>
                        <g id="Mask"></g>
                        <path d="M98.5,176 C135.226936,176 195.958335,145.056096 195.958335,112.195154 C195.958335,79.3342109 135.226936,57 98.5,57 C61.7730641,57 32,83.6390574 32,116.5 C32,149.360943 61.7730641,176 98.5,176 Z" fill="#343451" mask="url(#mask-7)"></path>
                    </g>
                    <g id="Group" transform="translate(87.761047, 53.365232) rotate(31.000000) translate(-87.761047, -53.365232) translate(20.761047, 31.365232)">
                        <polygon id="Rectangle-46-Copy-2" fill="#211D3E" points="36.2009365 4.27277497 122.586093 9.94382598 122.586093 33.9261777 36.2009365 40.1321928"></polygon>
                        <path d="M121.766787,9.87298269 L121.766787,9.87298269 C128.431195,9.87298269 133.833765,15.2755531 133.833765,21.9399615 L133.833765,21.9399615 C133.833765,28.6043699 128.431195,34.0069404 121.766787,34.0069404 L121.766787,9.87298269 Z" id="Rectangle-2" fill="#FF6969"></path>
                        <rect id="Rectangle-3" fill="#ADA7FF" x="0" y="5.48499038" width="36.2009365" height="32.9099423"></rect>
                        <rect id="Rectangle-46" fill="#FF6969" x="31.8129442" y="0" width="8.77598461" height="43.8799231" rx="4.38799231"></rect>
                        <rect id="Rectangle-46-Copy" fill="#FF6969" x="109.699808" y="7.67898654" width="3.29099423" height="28.52195" rx="1.64549711"></rect>
                    </g>
                    <circle id="Oval-2" fill="#211D3E" cx="98" cy="76" r="10"></circle>
                </g>
                <circle id="Oval-4" fill="#FFF78C" cx="603" cy="201" r="12"></circle>
                <circle id="Oval-4" fill="#4E4E4E" cx="603" cy="201" r="4"></circle>
            </g>
        </g>
    </g>
</svg>