<?xml version="1.0" encoding="UTF-8"?>
<svg width="350px" height="308px" viewBox="0 0 350 308" version="1.1" xmlns="http://www.w3.org/2000/svg" xmlns:xlink="http://www.w3.org/1999/xlink">
    <!-- Generator: Sketch 50.2 (55047) - http://www.bohemiancoding.com/sketch -->
    <title>CredibilityOfData</title>
    <desc>Created with Sketch.</desc>
    <defs>
        <polygon id="path-1" points="39.3084981 66.8058071 42.6956395 62.9114535 226.347297 126.791253 310.488235 280.076111 307.162388 283.899992 101.81283 242.94596"></polygon>
        <filter x="-22.9%" y="-10.9%" width="133.2%" height="140.7%" filterUnits="objectBoundingBox" id="filter-2">
            <feOffset dx="-17" dy="21" in="SourceAlpha" result="shadowOffsetOuter1"></feOffset>
            <feGaussianBlur stdDeviation="11.5" in="shadowOffsetOuter1" result="shadowBlurOuter1"></feGaussianBlur>
            <feColorMatrix values="0 0 0 0 0   0 0 0 0 0.00195518749   0 0 0 0 0.267724277  0 0 0 0.120442708 0" type="matrix" in="shadowBlurOuter1"></feColorMatrix>
        </filter>
        <polygon id="path-3" points="169 78 203 97.3078481 203 111 169 91.6921519"></polygon>
        <filter x="-8.8%" y="-9.1%" width="117.6%" height="118.2%" filterUnits="objectBoundingBox" id="filter-4">
            <feOffset dx="0" dy="0" in="SourceAlpha" result="shadowOffsetOuter1"></feOffset>
            <feGaussianBlur stdDeviation="1" in="shadowOffsetOuter1" result="shadowBlurOuter1"></feGaussianBlur>
            <feColorMatrix values="0 0 0 0 0.116206865   0 0 0 0 0.163911222   0 0 0 0 0.59026892  0 0 0 0.497452446 0" type="matrix" in="shadowBlurOuter1"></feColorMatrix>
        </filter>
        <path d="M133.027356,106.836913 L135.027356,105.723767 C135.992506,105.18659 137.210382,105.533531 137.747559,106.498681 C137.913111,106.796129 138,107.130911 138,107.471326 L138,116.415528 C138,117.141306 137.606814,117.810125 136.972644,118.163087 L134.972644,119.276233 C134.007494,119.81341 132.789618,119.466469 132.252441,118.501319 C132.086889,118.203871 132,117.869089 132,117.528674 L132,108.584472 C132,107.858694 132.393186,107.189875 133.027356,106.836913 Z" id="path-5"></path>
        <filter x="-400.0%" y="-170.7%" width="900.0%" height="441.4%" filterUnits="objectBoundingBox" id="filter-6">
            <feMorphology radius="4" operator="dilate" in="SourceAlpha" result="shadowSpreadOuter1"></feMorphology>
            <feOffset dx="0" dy="0" in="shadowSpreadOuter1" result="shadowOffsetOuter1"></feOffset>
            <feGaussianBlur stdDeviation="4" in="shadowOffsetOuter1" result="shadowBlurOuter1"></feGaussianBlur>
            <feColorMatrix values="0 0 0 0 0.712594697   0 0 0 0 1   0 0 0 0 0.785471076  0 0 0 1 0" type="matrix" in="shadowBlurOuter1"></feColorMatrix>
        </filter>
        <path d="M30.5083261,25.3405449 L43.4475562,17.9719551" id="path-7"></path>
        <filter x="-70.4%" y="-122.3%" width="240.9%" height="344.6%" filterUnits="objectBoundingBox" id="filter-8">
            <feMorphology radius="1.25" operator="dilate" in="SourceAlpha" result="shadowSpreadOuter1"></feMorphology>
            <feOffset dx="0" dy="0" in="shadowSpreadOuter1" result="shadowOffsetOuter1"></feOffset>
            <feMorphology radius="2" operator="erode" in="SourceAlpha" result="shadowInner"></feMorphology>
            <feOffset dx="0" dy="0" in="shadowInner" result="shadowInner"></feOffset>
            <feComposite in="shadowOffsetOuter1" in2="shadowInner" operator="out" result="shadowOffsetOuter1"></feComposite>
            <feGaussianBlur stdDeviation="2" in="shadowOffsetOuter1" result="shadowBlurOuter1"></feGaussianBlur>
            <feColorMatrix values="0 0 0 0 1   0 0 0 0 1   0 0 0 0 1  0 0 0 0.5 0" type="matrix" in="shadowBlurOuter1"></feColorMatrix>
        </filter>
    </defs>
    <g id="Page-1" stroke="none" stroke-width="1" fill="none" fill-rule="evenodd">
        <g id="Artboard-2" transform="translate(0.000000, -21.000000)">
            <g id="CredibilityOfData" transform="translate(0.000000, 7.000000)">
                <g id="Group-4-Copy-11" transform="translate(175.000000, 173.000000) scale(-1, 1) translate(-175.000000, -173.000000) ">
                    <g id="Rectangle-2-Copy-12" transform="translate(174.898367, 173.405723) rotate(-41.000000) translate(-174.898367, -173.405723) ">
                        <use fill="black" fill-opacity="1" filter="url(#filter-2)" xlink:href="#path-1"></use>
                        <use fill="#AFB8D7" fill-rule="evenodd" xlink:href="#path-1"></use>
                    </g>
                    <polygon id="Rectangle-2-Copy-13" fill="#EDF0FD" transform="translate(174.927404, 170.805862) rotate(-41.000000) translate(-174.927404, -170.805862) " points="41.0288734 62.1914934 247.005326 104.056888 308.825935 279.420231 103.512506 238.098473"></polygon>
                </g>
                <g id="Group-Copy-2" transform="translate(180.000000, 87.500000) scale(-1, 1) translate(-180.000000, -87.500000) translate(133.000000, 14.000000)">
                    <path d="M11.6362894,37.1222411 C15.6518127,34.8117076 19.3759907,32.711945 22.8088235,30.8229532 C26.1254528,29.8239082 62.2154437,8.62994842 63.6901378,7.91290353 L75.0733809,1.5553561 C79.3368274,-0.422235249 82.3048234,0.900942169 83.7914369,1.5553561 L90.5720171,5.41961661 C90.5720171,62.0241857 87.0882353,92.3845409 87.0882353,93.3174889 C87.0882353,95.815265 85.023621,97.4029466 82.1713174,99.0041896 C48.6695652,122.009312 24.0375374,137.93949 8.27523386,146.794725 L2.38582213,143.173031 C0.40140558,141.842297 0.691176477,138.473238 0.691176477,133.038471 C0.691176477,115.639162 0.691176477,89.5401973 0.691176477,54.7415783 C0.691176477,48.1512828 5.61300444,40.5880412 11.6362894,37.1222411 Z" id="Path-5-Copy-2" fill="#FCFFFD"></path>
                    <path d="M17.8568776,41.2437364 C21.8724009,38.933203 25.596579,36.8334404 29.0294118,34.9444486 C32.346041,33.9454035 66.7762552,13.5584819 69.910726,12.0343989 L81.2939691,5.67685143 C87.5248263,1.85559202 93.3088235,5.67685143 93.3088235,10.6408732 C93.3088235,67.2454423 93.3088235,96.5060362 93.3088235,97.4389843 C93.3088235,99.9367604 91.2442093,101.524442 88.3919056,103.125685 C56.8607339,120.839842 33.2139963,134.124538 17.4516928,142.979773 C6.90466949,148.905072 6.91176471,149.110821 6.91176471,137.159966 C6.91176471,119.760657 6.91176471,93.6616926 6.91176471,58.8630736 C6.91176471,52.2727781 11.8335927,44.7095366 17.8568776,41.2437364 Z" id="Path-5" fill="#DEDDED"></path>
                </g>
                <polygon id="Rectangle-23-Copy" fill="#ADA7CB" transform="translate(223.000000, 132.500000) scale(-1, 1) translate(-223.000000, -132.500000) " points="220 119 226 122.472395 226 146 220 142.527605"></polygon>
                <path d="M134.946947,56.2752948 C138.963143,53.9633257 142.687946,51.8622583 146.121354,49.9720927 C148.33281,49.3056489 162.568951,41.3389992 188.829777,26.0721438 L198.39467,20.6863093 C202.57863,18.4046199 205.932328,18.5390763 209.28125,20.4834331 L220,26.5364098 C220,83.1761519 210.411538,111.571933 210.411538,112.505461 C210.411538,115.004789 208.346578,116.593458 205.493796,118.195696 C176.073245,142.537828 153.480498,159.139263 137.715552,168 C130.25993,163.81047 126.102205,161.446234 125.242377,160.90729 C124.003501,160.130758 124,158.109989 124,152.251125 C124,134.841004 124,108.725822 124,73.9055804 C124,67.3111898 128.922653,59.7432486 134.946947,56.2752948 Z" id="Path-5-Copy-6" fill="#D7D4E4" transform="translate(172.000000, 93.500000) scale(-1, 1) translate(-172.000000, -93.500000) "></path>
                <polygon id="Rectangle-25" fill="#A6A2BB" transform="translate(209.500000, 114.000000) scale(-1, 1) translate(-209.500000, -114.000000) " points="208 89.5070092 211 88 211 138.492991 208 140"></polygon>
                <g id="Group-2-Copy" transform="translate(232.000000, 163.000000) scale(-1, 1) translate(-232.000000, -163.000000) translate(195.000000, 136.000000)">
                    <path d="M9.04330021,31.6036481 L63.5863294,0.81498525 C66.5022923,-0.831028901 70.2005054,0.19846795 71.8465195,3.11443083 C72.3598801,4.02386434 72.6296296,5.0504811 72.6296296,6.09480309 L72.6296296,6.09480309 C72.6296296,12.5111259 69.1738964,18.4301243 63.5863294,21.584216 L9.04330021,52.3728789 C6.12733734,54.018893 2.42912426,52.9893962 0.783110105,50.0734333 C0.269749509,49.1639998 -1.26342383e-15,48.137383 0,47.093061 L0,47.093061 C-7.85772924e-16,40.6767382 3.45573326,34.7577398 9.04330021,31.6036481 Z" id="Rectangle-2-Copy-2" fill="#E7E0E7"></path>
                    <path d="M10.4136706,32.2959558 L64.9566998,1.50729294 C67.8726627,-0.138721209 71.5708757,0.890775642 73.2168899,3.80673852 C73.7302505,4.71617204 74,5.74278879 74,6.78711078 L74,6.78711078 C74,13.2034336 70.5442667,19.122432 64.9566998,22.2765237 L10.4136706,53.0651866 C7.49770771,54.7112007 3.79949463,53.6817039 2.15348048,50.765741 C1.64011988,49.8563075 1.37037037,48.8296907 1.37037037,47.7853687 L1.37037037,47.7853687 C1.37037037,41.3690459 4.82610363,35.4500475 10.4136706,32.2959558 Z" id="Rectangle-2" fill="#C5C0CE"></path>
                    <path d="M10.6891426,35.5224095 L67.4219685,3.28680849 C69.5361712,2.08551815 72.2239094,2.82557987 73.4251997,4.9397826 C73.8019337,5.60281303 74,6.35232487 74,7.11491116 L74,7.11491116 C74,11.7915986 71.488113,16.107907 67.4219685,18.418291 L10.6891426,50.653892 C8.5749399,51.8551823 5.88720172,51.1151206 4.68591138,49.0009179 C4.30917739,48.3378874 4.11111111,47.5883756 4.11111111,46.8257893 L4.11111111,46.8257893 C4.11111111,42.1491018 6.62299807,37.8327935 10.6891426,35.5224095 Z" id="Rectangle-2-Copy" fill="#7E6E92"></path>
                </g>
                <polygon id="Rectangle-4" fill="#000000" opacity="0.401098279" transform="translate(209.500000, 189.500000) scale(-1, 1) translate(-209.500000, -189.500000) " points="150 195.39352 220.761784 156 269 183.533717 198.945327 223"></polygon>
                <g id="Group-5" transform="translate(217.500000, 211.000000) scale(-1, 1) translate(-217.500000, -211.000000) translate(213.000000, 204.000000)">
                    <path d="M4.5,14 C6.98528137,14 9,12.8060927 9,11.3333333 C9,10.8712815 9,9.98239265 9,8.66666667 C8.17716503,8.13321246 5.81571277,8.66666667 4.5,8.66666667 C2.79804606,8.66666667 0.764679218,7.8407307 2.09110507e-13,8.66666667 C1.45494727e-13,10.1349818 1.13686838e-13,11.0238706 1.13686838e-13,11.3333333 C1.13686838e-13,12.8060927 2.01471863,14 4.5,14 Z" id="Oval-11" fill="#3E2658"></path>
                    <ellipse id="Oval-11-Copy" fill="#5F4F74" cx="4.5" cy="8.66666667" rx="4.5" ry="2.66666667"></ellipse>
                    <path d="M4.5,10.3209927 C6.22057941,10.3209927 7.61538462,9.77123617 7.61538462,8.66666667 C7.61538462,7.930287 7.61538462,5.18482766 7.61538462,0.43028866 C6.73620214,0.43028866 1.95105041,0.0542563084 1.38461538,0.43028866 C1.38461538,5.56110329 1.38461538,8.30656263 1.38461538,8.66666667 C1.38461538,9.77123617 2.77942059,10.3209927 4.5,10.3209927 Z" id="Oval-11-Copy-2" fill="#A296AC"></path>
                </g>
                <g id="Group-5-Copy" transform="translate(256.500000, 189.000000) scale(-1, 1) translate(-256.500000, -189.000000) translate(252.000000, 182.000000)">
                    <path d="M4.5,14 C6.98528137,14 9,12.8060927 9,11.3333333 C9,10.8712815 9,9.98239265 9,8.66666667 C8.17716503,8.13321246 5.81571277,8.66666667 4.5,8.66666667 C2.79804606,8.66666667 0.764679218,7.8407307 2.09110507e-13,8.66666667 C1.45494727e-13,10.1349818 1.13686838e-13,11.0238706 1.13686838e-13,11.3333333 C1.13686838e-13,12.8060927 2.01471863,14 4.5,14 Z" id="Oval-11" fill="#3E2658"></path>
                    <ellipse id="Oval-11-Copy" fill="#5F4F74" cx="4.5" cy="8.66666667" rx="4.5" ry="2.66666667"></ellipse>
                    <path d="M4.5,10.3209927 C6.22057941,10.3209927 7.61538462,9.77123617 7.61538462,8.66666667 C7.61538462,7.930287 7.61538462,5.18482766 7.61538462,0.43028866 C6.73620214,0.43028866 1.95105041,0.0542563084 1.38461538,0.43028866 C1.38461538,5.56110329 1.38461538,8.30656263 1.38461538,8.66666667 C1.38461538,9.77123617 2.77942059,10.3209927 4.5,10.3209927 Z" id="Oval-11-Copy-2" fill="#A296AC"></path>
                </g>
                <path d="M131.894812,62.1689026 C135.891881,59.8554649 139.598944,57.7530629 143.016,55.8616967 C146.317387,54.8613959 148.797192,40.2944993 152.774061,37.9040608 C155.075055,36.5209665 161.531894,32.7387166 172.144578,26.5573111 C177.424182,24.5411423 180.589369,34.4488486 183.709434,32.9228498 L195.040363,26.5573111 C201.242585,22.7312485 207,26.5573111 207,31.5275725 C207,88.2032918 207,117.500665 207,118.434786 C207,120.935702 204.944874,122.525379 202.105679,124.128635 C170.719416,141.865058 147.181353,155.166453 131.491489,164.032818 C120.992937,169.965565 121,170.171572 121,158.205696 C121,140.784516 121,114.652747 121,79.8103868 C121,73.2118074 125.899209,65.6390591 131.894812,62.1689026 Z" id="Path-5-Copy-5" fill="#C1C1C1" transform="translate(164.000000, 96.500000) scale(-1, 1) translate(-164.000000, -96.500000) "></path>
                <path d="M193.638512,172.793159 L257.916807,136.776734 C260.856282,135.129687 264.574392,136.177407 266.221439,139.116881 C266.731925,140.027943 267,141.054792 267,142.099124 C259.739214,185.524272 250.178226,205.353936 238.317036,212 L195.884986,188.234335 C194.727569,187.478145 192.940292,185.799135 193.001533,182.88447 C193.042361,180.941361 193.254687,177.57759 193.638512,172.793159 Z" id="Rectangle-2" fill="#655079" transform="translate(230.000000, 173.998541) scale(-1, 1) translate(-230.000000, -173.998541) "></path>
                <polygon id="Rectangle-22" fill="#655079" transform="translate(211.000000, 166.000000) scale(-1, 1) translate(-211.000000, -166.000000) " points="219.524805 138 261 161.510644 202.672557 194 161 170.599291"></polygon>
                <g id="Group-2" transform="translate(188.000000, 187.000000) scale(-1, 1) translate(-188.000000, -187.000000) translate(151.000000, 160.000000)">
                    <path d="M9.04330021,31.6036481 L63.5863294,0.81498525 C66.5022923,-0.831028901 70.2005054,0.19846795 71.8465195,3.11443083 C72.3598801,4.02386434 72.6296296,5.0504811 72.6296296,6.09480309 L72.6296296,6.09480309 C72.6296296,12.5111259 69.1738964,18.4301243 63.5863294,21.584216 L9.04330021,52.3728789 C6.12733734,54.018893 2.42912426,52.9893962 0.783110105,50.0734333 C0.269749509,49.1639998 1.27892558e-16,48.137383 0,47.093061 L0,47.093061 C-7.85772924e-16,40.6767382 3.45573326,34.7577398 9.04330021,31.6036481 Z" id="Rectangle-2-Copy-2" fill="#E7E0E7"></path>
                    <path d="M10.4136706,32.2959558 L64.9566998,1.50729294 C67.8726627,-0.138721209 71.5708757,0.890775642 73.2168899,3.80673852 C73.7302505,4.71617204 74,5.74278879 74,6.78711078 L74,6.78711078 C74,13.2034336 70.5442667,19.122432 64.9566998,22.2765237 L10.4136706,53.0651866 C7.49770771,54.7112007 3.79949463,53.6817039 2.15348048,50.765741 C1.64011988,49.8563075 1.37037037,48.8296907 1.37037037,47.7853687 L1.37037037,47.7853687 C1.37037037,41.3690459 4.82610363,35.4500475 10.4136706,32.2959558 Z" id="Rectangle-2" fill="#C5C0CE"></path>
                    <path d="M10.6891426,35.5224095 L67.4219685,3.28680849 C69.5361712,2.08551815 72.2239094,2.82557987 73.4251997,4.9397826 C73.8019337,5.60281303 74,6.35232487 74,7.11491116 L74,7.11491116 C74,11.7915986 71.488113,16.107907 67.4219685,18.418291 L10.6891426,50.653892 C8.5749399,51.8551823 5.88720172,51.1151206 4.68591138,49.0009179 C4.30917739,48.3378874 4.11111111,47.5883756 4.11111111,46.8257893 L4.11111111,46.8257893 C4.11111111,42.1491018 6.62299807,37.8327935 10.6891426,35.5224095 Z" id="Rectangle-2-Copy" fill="#7E6E92"></path>
                </g>
                <path d="M80.9469472,86.2752948 C84.9631434,83.9633257 88.6879456,81.8622583 92.1213537,79.9720927 C95.4385387,78.9724269 97.9302106,64.4147773 101.92611,62.0258562 C104.238116,60.6436399 110.725853,56.8637909 121.389322,50.6863093 C122.254517,50.22182 124.428466,50.2229311 125.61296,50.9356818 L134.829777,56.0721438 L144.39467,50.6863093 C148.57863,48.4046199 151.932328,48.5390763 155.28125,50.4834331 L166,56.5364098 C166,113.176152 156.411538,141.571933 156.411538,142.505461 C156.411538,145.004789 154.346578,146.593458 151.493796,148.195696 C122.073245,172.537828 99.4804975,189.139263 83.7155524,198 C76.2599304,193.81047 72.1022053,191.446234 71.2423773,190.90729 C70.0035007,190.130758 70,188.109989 70,182.251125 C70,164.841004 70,138.725822 70,103.90558 C70,97.3111898 74.9226528,89.7432486 80.9469472,86.2752948 Z" id="Path-5-Copy-7" fill="#D7D5E4" transform="translate(118.000000, 123.500000) scale(-1, 1) translate(-118.000000, -123.500000) "></path>
                <g id="Group" transform="translate(107.500000, 129.000000) scale(-1, 1) translate(-107.500000, -129.000000) translate(61.000000, 55.000000)">
                    <path d="M10.9868861,37.0398522 C15.0177351,34.7021908 18.7561269,32.5777749 22.2020615,30.6666045 L63.2394037,7.48756806 L74.6660922,1.05537672 C78.9458106,-0.945433517 81.9251343,0.393279317 83.4174216,1.05537672 L90.2238806,4.96500747 C90.2238806,62.2341704 86.7268026,92.9509862 86.7268026,93.894888 C86.7268026,96.4219905 84.6543085,98.028313 81.7911187,99.6483562 C48.1615035,122.923582 23.4354648,139.040796 7.61300276,148 L1.96657958,144.754103 C0.887165921,144.054393 -6.43678792e-09,142.951946 2.13162821e-13,137.731254 C2.17050385e-08,120.127681 2.3850768e-08,92.5059488 6.43740158e-09,54.8660579 C6.43698214e-09,48.1983858 4.94061266,40.5463443 10.9868861,37.0398522 Z" id="Path-5-Copy-2" fill="#FCFFFD"></path>
                    <path d="M17.2365662,41.0396762 C21.2686668,38.7015539 25.0082193,36.5767192 28.4552239,34.6651719 L69.5053083,11.4815657 L80.9355447,5.04810617 C87.1921248,1.18121917 93,5.04810617 93,10.0714007 C93,67.3518545 93,96.9618334 93,97.9059212 C93,100.433522 90.9268624,102.040161 88.0627836,103.660524 C56.4014419,121.586196 32.6570836,135.029518 16.8297086,143.990488 C6.23914415,149.986538 6.24626866,150.194743 6.24626866,138.10119 C6.24626866,120.494125 6.24626866,94.083527 6.24626866,58.8693964 C6.24626866,52.2004097 11.1884154,44.5468596 17.2365662,41.0396762 Z" id="Path-5" fill="#DEDDED"></path>
                </g>
                <polygon id="Rectangle-3" fill="#918AB4" transform="translate(104.500000, 151.000000) scale(-1, 1) translate(-104.500000, -151.000000) " points="61 163.763579 148 115 148 138.236421 61 187"></polygon>
                <path d="M138.141939,62.988063 L148.945914,56.8950637 C151.250796,55.569687 154.59548,55.4267253 156,56.1720004 L91.7852826,19.7276232 C90.2686186,18.8727258 86.1390146,18.6486405 84.0093108,19.7276232 C78.188341,23.0141422 74.2262177,25.2589733 72.1229408,26.4621163 C70.3103785,27.4989611 88.5402848,37.58505 126.81266,56.7203829 C127.749918,56.1904831 137.538621,63.3304263 138.141939,62.988063 Z" id="Path-16-Copy-2" fill="#92A6ED" transform="translate(114.000000, 41.000000) scale(-1, 1) translate(-114.000000, -41.000000) "></path>
                <g id="Group-4" transform="translate(186.000000, 120.000000) scale(-1, 1) translate(-186.000000, -120.000000) translate(164.000000, 75.000000)">
                    <g id="Group-3" transform="translate(38.500000, 21.984733)">
                        <polygon id="Rectangle-21-Copy" fill="#4F3A65" points="0.834352682 0.318415528 4.83231583 2.51554093 4.83231583 67.0722378 4.12197855 67.5922478 0.0185433083 0.704624282"></polygon>
                        <polygon id="Rectangle-21" fill="#5E4972" points="0 0.687022901 4.125 3.01264803 4.125 67.5928007 0 65.2671756"></polygon>
                    </g>
                    <g id="Group-3-Copy-4" transform="translate(19.250000, 10.992366)">
                        <polygon id="Rectangle-21-Copy" fill="#4F3A65" points="0.834352682 0.318415528 4.83231583 2.51554093 4.83231583 67.0722378 4.12197855 67.5922478 0.0185433083 0.704624282"></polygon>
                        <polygon id="Rectangle-21" fill="#5E4972" points="0 0.687022901 4.125 3.01264803 4.125 67.5928007 0 65.2671756"></polygon>
                    </g>
                    <g id="Group-3-Copy-2" transform="translate(28.875000, 16.488550)">
                        <polygon id="Rectangle-21-Copy" fill="#4F3A65" points="0.834352682 0.318415528 4.83231583 2.51554093 4.83231583 67.0722378 4.12197855 67.5922478 0.0185433083 0.704624282"></polygon>
                        <polygon id="Rectangle-21" fill="#5E4972" points="0 0.687022901 4.125 3.01264803 4.125 67.5928007 0 65.2671756"></polygon>
                    </g>
                    <g id="Group-3-Copy-5" transform="translate(9.625000, 5.496183)">
                        <polygon id="Rectangle-21-Copy" fill="#4F3A65" points="0.834352682 0.318415528 4.83231583 2.51554093 4.83231583 67.0722378 4.12197855 67.5922478 0.0185433083 0.704624282"></polygon>
                        <polygon id="Rectangle-21" fill="#5E4972" points="0 0.687022901 4.125 3.01264803 4.125 67.5928007 0 65.2671756"></polygon>
                    </g>
                    <g id="Group-3-Copy" transform="translate(33.687500, 19.236641)">
                        <polygon id="Rectangle-21-Copy" fill="#4F3A65" points="0.834352682 0.318415528 4.83231583 2.51554093 4.83231583 67.0722378 4.12197855 67.5922478 0.0185433083 0.704624282"></polygon>
                        <polygon id="Rectangle-21" fill="#5E4972" points="0 0.687022901 4.125 3.01264803 4.125 67.5928007 0 65.2671756"></polygon>
                    </g>
                    <g id="Group-3-Copy-6" transform="translate(14.437500, 8.244275)">
                        <polygon id="Rectangle-21-Copy" fill="#4F3A65" points="0.834352682 0.318415528 4.83231583 2.51554093 4.83231583 67.0722378 4.12197855 67.5922478 0.0185433083 0.704624282"></polygon>
                        <polygon id="Rectangle-21" fill="#5E4972" points="0 0.687022901 4.125 3.01264803 4.125 67.5928007 0 65.2671756"></polygon>
                    </g>
                    <g id="Group-3-Copy-3" transform="translate(24.062500, 13.740458)">
                        <polygon id="Rectangle-21-Copy" fill="#4F3A65" points="0.834352682 0.318415528 4.83231583 2.51554093 4.83231583 67.0722378 4.12197855 67.5922478 0.0185433083 0.704624282"></polygon>
                        <polygon id="Rectangle-21" fill="#5E4972" points="0 0.687022901 4.125 3.01264803 4.125 67.5928007 0 65.2671756"></polygon>
                    </g>
                    <g id="Group-3-Copy-7" transform="translate(4.812500, 2.748092)">
                        <polygon id="Rectangle-21-Copy" fill="#4F3A65" points="0.834352682 0.318415528 4.83231583 2.51554093 4.83231583 67.0722378 4.12197855 67.5922478 0.0185433083 0.704624282"></polygon>
                        <polygon id="Rectangle-21" fill="#5E4972" points="0 0.687022901 4.125 3.01264803 4.125 67.5928007 0 65.2671756"></polygon>
                    </g>
                    <g id="Group-3-Copy-8">
                        <polygon id="Rectangle-21-Copy" fill="#4F3A65" points="0.834352682 0.318415528 4.83231583 2.51554093 4.83231583 67.0722378 4.12197855 67.5922478 0.0185433083 0.704624282"></polygon>
                        <polygon id="Rectangle-21" fill="#5E4972" points="0 0.687022901 4.125 3.01264803 4.125 67.5928007 0 65.2671756"></polygon>
                    </g>
                </g>
                <g id="Group-15" transform="translate(97.500000, 103.000000) scale(-1, 1) translate(-97.500000, -103.000000) translate(77.000000, 75.000000)">
                    <path d="M-7.95807864e-13,50.5997939 L-7.95807864e-13,27.8752659 C-7.95807864e-13,21.9315271 -7.95807864e-13,21.9483137 4.88326831,19.0639768 C18.2930698,11.4113951 28.3374287,5.63156513 35.016345,1.72448679 C37.1062413,0.501924851 38.2440203,-0.16208269 38.8634486,0.033982095 L40.3026391,0.746133608 C40.433665,1.53805915 39.6036646,3.1363446 39.6036646,4.93601494 L39.6036646,27.9626557 C39.6036646,33.8299779 39.6036646,33.8138857 35.0540326,36.385652 L5.38355174,53.3868688 C4.14857615,54.0866476 2.75019685,55.6551284 2.01683431,56 L0.513654985,55.2102268 C-7.95807864e-13,54.714355 -7.95807864e-13,53.2658981 -7.95807864e-13,50.5997939 Z" id="Path-14-Copy" fill="#7B8ACF"></path>
                    <path d="M1.36666667,51.198982 L1.36666667,28.5120614 C1.36666667,22.578159 1.36666667,22.5949178 6.25359323,19.7153542 C19.6734406,12.075437 29.7253241,6.30517216 36.4092438,2.40455972 C41,-0.274521029 41,-0.266929703 41,5.61077305 L41,28.5993065 C41,34.4569187 41,34.4408532 36.4469597,37.0083633 L6.75425145,53.9814445 C1.36666667,57.0268979 1.36666667,57.0239059 1.36666667,51.198982 Z" id="Path-14" fill="#5F65A5"></path>
                </g>
                <path d="M176.24305,162.991223 L208.290834,145.18654 C208.748401,144.932331 209.305918,144.937396 209.758791,145.199875 L209.758791,145.199875 C209.987368,145.332356 210.06527,145.625052 209.932789,145.853629 C209.889388,145.928512 209.826485,145.990216 209.750781,146.032168 L177.648372,163.821967 C177.206266,164.066964 176.667483,164.059534 176.232301,163.802439 L176.232301,163.802439 C176.00999,163.671104 175.936241,163.384418 176.067576,163.162108 C176.109842,163.090564 176.170412,163.031578 176.24305,162.991223 Z" id="Rectangle" fill="#55406C"></path>
                <path d="M193.24305,172.991223 L225.290834,155.18654 C225.748401,154.932331 226.305918,154.937396 226.758791,155.199875 L226.758791,155.199875 C226.987368,155.332356 227.06527,155.625052 226.932789,155.853629 C226.889388,155.928512 226.826485,155.990216 226.750781,156.032168 L194.648372,173.821967 C194.206266,174.066964 193.667483,174.059534 193.232301,173.802439 L193.232301,173.802439 C193.00999,173.671104 192.936241,173.384418 193.067576,173.162108 C193.109842,173.090564 193.170412,173.031578 193.24305,172.991223 Z" id="Rectangle-Copy" fill="#55406C"></path>
                <path d="M90.5866663,101.586422 L108.413334,91.0506449 C108.598205,90.9413835 108.836647,91.0026778 108.945909,91.1875495 C108.98132,91.2474652 109,91.3157871 109,91.3853848 L109,91.3853848 C109,91.8077385 108.776933,92.1986869 108.413334,92.4135783 L90.5866663,102.949355 C90.4017946,103.058616 90.1633526,102.997322 90.0540912,102.812451 C90.0186803,102.752535 90,102.684213 90,102.614615 L90,102.614615 C90,102.192262 90.2230672,101.801313 90.5866663,101.586422 Z" id="Rectangle-5" fill="#2A2E59" opacity="0.601392663" transform="translate(99.500000, 97.000000) scale(-1, 1) translate(-99.500000, -97.000000) "></path>
                <path d="M90.5866663,109.586422 L108.413334,99.0506449 C108.598205,98.9413835 108.836647,99.0026778 108.945909,99.1875495 C108.98132,99.2474652 109,99.3157871 109,99.3853848 L109,99.3853848 C109,99.8077385 108.776933,100.198687 108.413334,100.413578 L90.5866663,110.949355 C90.4017946,111.058616 90.1633526,110.997322 90.0540912,110.812451 C90.0186803,110.752535 90,110.684213 90,110.614615 L90,110.614615 C90,110.192262 90.2230672,109.801313 90.5866663,109.586422 Z" id="Rectangle-5-Copy-3" fill="#2A2E59" opacity="0.601392663" transform="translate(99.500000, 105.000000) scale(-1, 1) translate(-99.500000, -105.000000) "></path>
                <path d="M90.5866663,117.586422 L108.413334,107.050645 C108.598205,106.941384 108.836647,107.002678 108.945909,107.187549 C108.98132,107.247465 109,107.315787 109,107.385385 L109,107.385385 C109,107.807738 108.776933,108.198687 108.413334,108.413578 L90.5866663,118.949355 C90.4017946,119.058616 90.1633526,118.997322 90.0540912,118.812451 C90.0186803,118.752535 90,118.684213 90,118.614615 L90,118.614615 C90,118.192262 90.2230672,117.801313 90.5866663,117.586422 Z" id="Rectangle-5-Copy-4" fill="#2A2E59" opacity="0.601392663" transform="translate(99.500000, 113.000000) scale(-1, 1) translate(-99.500000, -113.000000) "></path>
                <path d="M209.24305,182.991223 L241.290834,165.18654 C241.748401,164.932331 242.305918,164.937396 242.758791,165.199875 L242.758791,165.199875 C242.987368,165.332356 243.06527,165.625052 242.932789,165.853629 C242.889388,165.928512 242.826485,165.990216 242.750781,166.032168 L210.648372,183.821967 C210.206266,184.066964 209.667483,184.059534 209.232301,183.802439 L209.232301,183.802439 C209.00999,183.671104 208.936241,183.384418 209.067576,183.162108 C209.109842,183.090564 209.170412,183.031578 209.24305,182.991223 Z" id="Rectangle-Copy-2" fill="#55406C"></path>
                <path d="M226.24305,192.991223 L258.290834,175.18654 C258.748401,174.932331 259.305918,174.937396 259.758791,175.199875 L259.758791,175.199875 C259.987368,175.332356 260.06527,175.625052 259.932789,175.853629 C259.889388,175.928512 259.826485,175.990216 259.750781,176.032168 L227.648372,193.821967 C227.206266,194.066964 226.667483,194.059534 226.232301,193.802439 L226.232301,193.802439 C226.00999,193.671104 225.936241,193.384418 226.067576,193.162108 C226.109842,193.090564 226.170412,193.031578 226.24305,192.991223 Z" id="Rectangle-Copy-3" fill="#55406C"></path>
                <path d="M89,85.4147046 L155.262863,123 L155.262863,110.428369 C155.262863,104.866432 159.369854,96.489935 166.207025,92.6007615 L219,62.6853147 L153.137937,26 L99.6449104,56.5159708 C94.9321655,59.2567588 89,66.371956 89,74.1037643 L89,85.4147046 Z" id="Path-16" fill="#92A6ED" transform="translate(154.000000, 74.500000) scale(-1, 1) translate(-154.000000, -74.500000) "></path>
                <g id="Rectangle" transform="translate(186.000000, 94.500000) scale(-1, 1) translate(-186.000000, -94.500000) ">
                    <use fill="black" fill-opacity="1" filter="url(#filter-4)" xlink:href="#path-3"></use>
                    <use fill="#EE2563" fill-rule="evenodd" xlink:href="#path-3"></use>
                </g>
                <polygon id="Rectangle-23" fill="#ADA7CB" transform="translate(150.000000, 173.500000) scale(-1, 1) translate(-150.000000, -173.500000) " points="147 160 153 163.472395 153 187 147 183.527605"></polygon>
                <g id="Group-6" transform="translate(210.000000, 82.000000) scale(-1, 1) translate(-210.000000, -82.000000) translate(206.000000, 77.000000)">
                    <path d="M4.06698269,0.622893941 L4.06698269,0.622893941 C6.13790804,1.59382853 7.45053011,3.68525229 7.42440797,5.97233852 L7.41805787,6.52831298 C7.40005191,8.10479893 6.10746082,9.36819659 4.53097487,9.35019063 C4.18390292,9.34622652 3.84046352,9.27900002 3.51751231,9.15181053 C3.51751231,9.15181053 3.51751231,9.15181053 3.51751231,9.15181053 C3.51751231,9.15181053 3.51751231,9.15181053 3.51751231,9.15181053 L3.51751231,9.15181053 C1.70506072,7.55418856 0.666666667,5.25465673 0.666666667,2.83859037 L0.666666667,2.78416873 C0.666666667,1.46585292 1.73537278,0.397146808 3.05368858,0.397146808 C3.40392446,0.397146808 3.74986957,0.474218329 4.06698269,0.622893941 Z" id="Rectangle-5-Copy-2" fill="#F5A623"></path>
                    <path d="M3.33333333,0.945943247 L3.33333333,0.945943247 C5.3896057,2.07935345 6.66666667,4.24147496 6.66666667,6.58942614 L6.66666667,7.17402431 C6.66666667,8.41562445 5.66015089,9.42214023 4.41855075,9.42214023 C4.03903748,9.42214023 3.66570083,9.32606346 3.33333333,9.14286365 L3.33333333,9.14286365 C1.27706096,8.00945344 -1.42108547e-14,5.84733193 -1.42108547e-14,3.49938075 L-1.33226763e-14,2.91478258 C-1.33226763e-14,1.67318245 1.00651578,0.666666667 2.24811592,0.666666667 C2.62762919,0.666666667 3.00096583,0.762743434 3.33333333,0.945943247 Z" id="Rectangle-5-Copy" fill="#F8E71C"></path>
                </g>
                <g id="Group-6-Copy" transform="translate(161.000000, 110.000000) scale(-1, 1) translate(-161.000000, -110.000000) translate(157.000000, 105.000000)">
                    <path d="M4.06698269,0.622893941 L4.06698269,0.622893941 C6.13790804,1.59382853 7.45053011,3.68525229 7.42440797,5.97233852 L7.41805787,6.52831298 C7.40005191,8.10479893 6.10746082,9.36819659 4.53097487,9.35019063 C4.18390292,9.34622652 3.84046352,9.27900002 3.51751231,9.15181053 C3.51751231,9.15181053 3.51751231,9.15181053 3.51751231,9.15181053 C3.51751231,9.15181053 3.51751231,9.15181053 3.51751231,9.15181053 L3.51751231,9.15181053 C1.70506072,7.55418856 0.666666667,5.25465673 0.666666667,2.83859037 L0.666666667,2.78416873 C0.666666667,1.46585292 1.73537278,0.397146808 3.05368858,0.397146808 C3.40392446,0.397146808 3.74986957,0.474218329 4.06698269,0.622893941 Z" id="Rectangle-5-Copy-2" fill="#F5A623"></path>
                    <path d="M3.33333333,0.945943247 L3.33333333,0.945943247 C5.3896057,2.07935345 6.66666667,4.24147496 6.66666667,6.58942614 L6.66666667,7.17402431 C6.66666667,8.41562445 5.66015089,9.42214023 4.41855075,9.42214023 C4.03903748,9.42214023 3.66570083,9.32606346 3.33333333,9.14286365 L3.33333333,9.14286365 C1.27706096,8.00945344 1.33226763e-14,5.84733193 1.33226763e-14,3.49938075 L1.0658141e-14,2.91478258 C1.0658141e-14,1.67318245 1.00651578,0.666666667 2.24811592,0.666666667 C2.62762919,0.666666667 3.00096583,0.762743434 3.33333333,0.945943247 Z" id="Rectangle-5-Copy" fill="#F8E71C"></path>
                </g>
                <g id="Group-6-Copy-2" transform="translate(83.000000, 85.000000)" fill="#F8E71C">
                    <path d="M2,0.878625273 L2,0.878625273 C3.23905975,1.60666632 4,2.9363503 4,4.37346993 L4,4.97683172 C4,5.70998679 3.40566039,6.3043264 2.67250533,6.3043264 C2.43604349,6.3043264 2.20387332,6.24116568 2,6.12137473 L2,6.12137473 C0.760940249,5.39333368 4.4408921e-16,4.0636497 4.4408921e-16,2.62653007 L4.4408921e-16,2.02316828 C4.4408921e-16,1.29001321 0.594339609,0.695673605 1.32749467,0.695673605 C1.56395651,0.695673605 1.79612668,0.758834323 2,0.878625273 Z" id="Rectangle-5-Copy"></path>
                </g>
                <g id="Group-6-Copy-3" transform="translate(83.000000, 92.000000)" fill="#F8E71C">
                    <path d="M2,0.878625273 L2,0.878625273 C3.23905975,1.60666632 4,2.9363503 4,4.37346993 L4,4.97683172 C4,5.70998679 3.40566039,6.3043264 2.67250533,6.3043264 C2.43604349,6.3043264 2.20387332,6.24116568 2,6.12137473 L2,6.12137473 C0.760940249,5.39333368 1.33226763e-15,4.0636497 1.33226763e-15,2.62653007 L4.4408921e-16,2.02316828 C4.4408921e-16,1.29001321 0.594339609,0.695673605 1.32749467,0.695673605 C1.56395651,0.695673605 1.79612668,0.758834323 2,0.878625273 Z" id="Rectangle-5-Copy"></path>
                </g>
                <g id="Group-6-Copy-4" transform="translate(83.000000, 100.000000)" fill="#F8E71C">
                    <path d="M2,0.878625273 L2,0.878625273 C3.23905975,1.60666632 4,2.9363503 4,4.37346993 L4,4.97683172 C4,5.70998679 3.40566039,6.3043264 2.67250533,6.3043264 C2.43604349,6.3043264 2.20387332,6.24116568 2,6.12137473 L2,6.12137473 C0.760940249,5.39333368 4.4408921e-16,4.0636497 4.4408921e-16,2.62653007 L4.4408921e-16,2.02316828 C4.4408921e-16,1.29001321 0.594339609,0.695673605 1.32749467,0.695673605 C1.56395651,0.695673605 1.79612668,0.758834323 2,0.878625273 Z" id="Rectangle-5-Copy"></path>
                </g>
                <g id="Group-8-Copy-2" transform="translate(83.000000, 103.000000)" stroke="#FFFFFF" stroke-linecap="square">
                    <path d="M1.125,1.66666667 L2.625,0.333333333" id="Line-4"></path>
                    <path d="M0.375,1 L1.125,1.66666667" id="Line-3"></path>
                </g>
                <g id="Group-8-Copy-3" transform="translate(83.000000, 95.000000)" stroke="#FFFFFF" stroke-linecap="square">
                    <path d="M1.125,1.66666667 L2.625,0.333333333" id="Line-4"></path>
                    <path d="M0.375,1 L1.125,1.66666667" id="Line-3"></path>
                </g>
                <g id="Group-8-Copy-4" transform="translate(83.000000, 88.000000)" stroke="#FFFFFF" stroke-linecap="square">
                    <path d="M1.125,1.66666667 L2.625,0.333333333" id="Line-4"></path>
                    <path d="M0.375,1 L1.125,1.66666667" id="Line-3"></path>
                </g>
                <g id="Rectangle-24" transform="translate(135.000000, 112.500000) scale(-1, 1) translate(-135.000000, -112.500000) ">
                    <use fill="black" fill-opacity="1" filter="url(#filter-6)" xlink:href="#path-5"></use>
                    <use fill="#4CFFB6" fill-rule="evenodd" xlink:href="#path-5"></use>
                </g>
                <path d="M133.027356,122.836913 L135.027356,121.723767 C135.992506,121.18659 137.210382,121.533531 137.747559,122.498681 C137.913111,122.796129 138,123.130911 138,123.471326 L138,132.415528 C138,133.141306 137.606814,133.810125 136.972644,134.163087 L134.972644,135.276233 C134.007494,135.81341 132.789618,135.466469 132.252441,134.501319 C132.086889,134.203871 132,133.869089 132,133.528674 L132,124.584472 C132,123.858694 132.393186,123.189875 133.027356,122.836913 Z" id="Rectangle-24-Copy" fill="#FF595D" transform="translate(135.000000, 128.500000) scale(-1, 1) translate(-135.000000, -128.500000) "></path>
                <g id="Group-7" transform="translate(190.000000, 148.000000)">
                    <g id="Group-2-Copy-2">
                        <path d="M2.13325846e-05,14.795675 C1.01066888,14.2343462 16.6773284,13.229591 47,11.7814093 C47,15.6149292 47,17.7602514 47,18.217376 C47,18.9030628 46.4338961,19.3389115 45.6518128,19.7784831 L23.2137077,32.4057112 C21.8772077,33.1349345 19.1729498,33.1440249 17.8537317,32.4057112 L1.15148837,22.9763257 C0.378029295,22.5348059 -0.00328628223,21.891095 2.13325847e-05,21.2503557 C0.00222178776,20.8240915 0.00222178776,18.6725312 2.13325846e-05,14.795675 Z" id="Path-5" fill="#65B4C1"></path>
                        <path d="M1.15148837,13.1334908 L23.3095621,0.63873301 C24.8255334,-0.203260163 27.2970672,-0.222507471 28.8303794,0.63873301 L45.6518128,10.1434859 C46.4474697,10.5937058 47,11.0280584 47,11.7281316 C47,12.4282047 46.4788551,12.9022136 45.6518128,13.3670545 L23.2137077,25.9942826 C21.8772077,26.7235059 19.1729498,26.7325963 17.8537317,25.9942826 L1.15148837,16.5648971 C-0.393808778,15.6827829 -0.373817599,13.9935984 1.15148837,13.1334908 Z" id="Path-5-Copy" fill="#92EDE1"></path>
                    </g>
                    <path d="M24.5628278,29.5588251 C24.1377326,29.5178124 24.1448894,29.0814941 24.2544909,28.8037635 C24.3640925,28.526033 24.7169082,28.1857151 25.0569747,28.187507 C25.3970411,28.189299 25.6639976,28.4270545 25.5445579,28.8601015 C25.4251182,29.2931485 24.987923,29.5998378 24.5628278,29.5588251 Z" id="Oval-10-Copy-6" fill="#FFED0E"></path>
                    <path d="M26.6363572,28.1838251 C26.211262,28.1428124 26.2184188,27.7064941 26.3280203,27.4287635 C26.4376219,27.151033 26.7904377,26.8107151 27.1305041,26.812507 C27.4705705,26.814299 27.737527,27.0520545 27.6180873,27.4851015 C27.4986476,27.9181485 27.0614524,28.2248378 26.6363572,28.1838251 Z" id="Oval-10-Copy-7" fill="#FFED0E"></path>
                    <g id="Line" stroke-linecap="round">
                        <use fill="black" fill-opacity="1" filter="url(#filter-8)" xlink:href="#path-7"></use>
                        <use stroke="#FFFFFF" stroke-width="0.5" xlink:href="#path-7"></use>
                    </g>
                </g>
            </g>
        </g>
    </g>
</svg>