<?xml version="1.0" encoding="UTF-8"?>
<svg width="700px" height="300px" viewBox="0 0 700 300" version="1.1" xmlns="http://www.w3.org/2000/svg" xmlns:xlink="http://www.w3.org/1999/xlink" style="background: #FFFFFF;">
    <!-- Generator: Sketch 50.2 (55047) - http://www.bohemiancoding.com/sketch -->
    <title>Artboard 2 Copy 2</title>
    <desc>Created with Sketch.</desc>
    <defs></defs>
    <g id="Page-1" stroke="none" stroke-width="1" fill="none" fill-rule="evenodd">
        <path d="M28.3276367,46.5249023 L43.3950195,46.5249023 C53.4038586,46.5249023 61.4252628,49.9303859 67.4594727,56.7414551 C73.4936825,63.5525243 76.5107422,72.901796 76.5107422,84.7895508 C76.5107422,96.9302365 73.448517,106.333707 67.3239746,113.000244 C61.1994323,119.666781 53.3496573,123 43.7744141,123 L28.3276367,123 L28.3276367,46.5249023 Z M37.2163086,115.249512 L43.503418,115.249512 C50.7661496,115.249512 56.5112093,112.557644 60.7387695,107.173828 C64.9663297,101.790012 67.0800781,94.328661 67.0800781,84.7895508 C67.0800781,75.3227066 64.9572966,67.8703885 60.7116699,62.432373 C56.4660432,56.9943576 50.7300166,54.2753906 43.503418,54.2753906 L37.2163086,54.2753906 L37.2163086,115.249512 Z M133.934595,123 L99.1928956,123 L99.1928956,115.249512 L112.363306,115.249512 L112.363306,54.2753906 L99.1928956,54.2753906 L99.1928956,46.5249023 L133.934595,46.5249023 L133.934595,54.2753906 L121.251978,54.2753906 L121.251978,115.249512 L133.934595,115.249512 L133.934595,123 Z M208.214405,123 L199.650928,123 L199.650928,57.4189453 L188.106494,88.800293 L179.705615,88.800293 L168.161182,57.4189453 L168.161182,123 L159.597705,123 L159.597705,46.5249023 L171.142139,46.5249023 L183.933155,81.375 L196.669971,46.5249023 L208.214405,46.5249023 L208.214405,123 Z M270.732984,123 L230.78816,123 L230.78816,46.5249023 L270.407788,46.5249023 L270.407788,54.2753906 L239.676831,54.2753906 L239.676831,77.9604492 L269.215406,77.9604492 L269.215406,85.7109375 L239.676831,85.7109375 L239.676831,115.249512 L270.732984,115.249512 L270.732984,123 Z M339.918067,123 L330.053809,123 L302.629004,62.6220703 L302.629004,123 L293.740333,123 L293.740333,46.5249023 L303.65879,46.5249023 L331.191993,106.36084 L331.191993,46.5249023 L339.918067,46.5249023 L339.918067,123 Z M399.780884,54.9799805 C395.228127,53.4262618 390.910299,52.6494141 386.827271,52.6494141 C382.202248,52.6494141 378.43544,53.7062883 375.526734,55.8200684 C372.618028,57.9338485 371.163697,60.941875 371.163697,64.8442383 C371.163697,69.4692614 374.975671,73.5341622 382.599732,77.0390625 C388.236479,79.640638 391.967155,81.4472606 393.791871,82.4589844 C395.616587,83.4707082 397.468375,84.8618076 399.347291,86.6323242 C401.226206,88.4028409 402.734736,90.4894899 403.872925,92.892334 C405.011115,95.295178 405.580201,97.9960788 405.580201,100.995117 C405.580201,108.438514 403.078029,114.210673 398.073609,118.311768 C393.069189,122.412862 387.170567,124.463379 380.377564,124.463379 C373.801359,124.463379 368.038233,123.162611 363.088013,120.561035 L364.930787,112.918945 C370.748199,115.556654 375.824808,116.875488 380.160767,116.875488 C385.219386,116.875488 389.275254,115.565687 392.328492,112.946045 C395.38173,110.326403 396.908326,106.722191 396.908326,102.133301 C396.908326,98.7367994 395.914683,95.8552364 393.927369,93.4885254 C391.940054,91.1218143 388.27261,88.7099732 382.924927,86.2529297 C377.432712,83.7236202 373.882699,81.9982956 372.274781,81.0769043 C370.666863,80.155513 369.068002,78.8818441 367.47815,77.2558594 C365.888298,75.6298747 364.659795,73.8051859 363.792603,71.7817383 C362.925411,69.7582907 362.491822,67.5542111 362.491822,65.1694336 C362.491822,58.8461598 364.768166,53.9140802 369.320923,50.3730469 C373.873681,46.8320135 379.636807,45.0615234 386.610474,45.0615234 C391.705226,45.0615234 396.763769,45.8383711 401.786256,47.3920898 L399.780884,54.9799805 Z M467.123194,123 L432.381495,123 L432.381495,115.249512 L445.551905,115.249512 L445.551905,54.2753906 L432.381495,54.2753906 L432.381495,46.5249023 L467.123194,46.5249023 L467.123194,54.2753906 L454.440577,54.2753906 L454.440577,115.249512 L467.123194,115.249512 L467.123194,123 Z M516.633961,45.0615234 C525.19748,45.0615234 531.728421,48.4489407 536.226978,55.223877 C540.725536,61.9988132 542.974781,71.8539392 542.974781,84.7895508 C542.974781,97.6528963 540.734569,107.480923 536.254078,114.273926 C531.773587,121.066928 525.233613,124.463379 516.633961,124.463379 C508.106574,124.463379 501.5937,121.075962 497.095142,114.301025 C492.596585,107.526089 490.34734,97.6890293 490.34734,84.7895508 C490.34734,71.8900722 492.587552,62.0439793 497.068043,55.2509766 C501.548534,48.4579738 508.070441,45.0615234 516.633961,45.0615234 Z M516.633961,116.658691 C527.907455,116.658691 533.544117,106.035751 533.544117,84.7895508 C533.544117,63.5072178 527.907455,52.8662109 516.633961,52.8662109 C511.141746,52.8662109 506.959415,55.6213103 504.086842,61.1315918 C501.214269,66.6418733 499.778004,74.5277807 499.778004,84.7895508 C499.778004,95.1597198 501.205236,103.063694 504.059742,108.501709 C506.914249,113.939724 511.105613,116.658691 516.633961,116.658691 Z M606.468946,123 L596.604689,123 L569.179884,62.6220703 L569.179884,123 L560.291212,123 L560.291212,46.5249023 L570.209669,46.5249023 L597.742872,106.36084 L597.742872,46.5249023 L606.468946,46.5249023 L606.468946,123 Z M75.0473633,247.230469 C69.0492864,251.385763 62.0937896,253.463379 54.1806641,253.463379 C44.2802239,253.463379 36.755641,250.066928 31.6066895,243.273926 C26.4577379,236.480923 23.8833008,226.652896 23.8833008,213.789551 C23.8833008,201.359801 26.3764399,191.631139 31.362793,184.603271 C36.349146,177.575404 43.955027,174.061523 54.1806641,174.061523 C57.8662294,174.061523 61.5156069,174.531245 65.1289062,175.470703 C68.7422056,176.410161 71.6508679,177.656731 73.8549805,179.210449 L70.9282227,186.202148 C65.8334706,183.311509 60.2510069,181.866211 54.1806641,181.866211 C47.1347304,181.866211 41.895525,184.422582 38.4628906,189.5354 C35.0302563,194.648219 33.3139648,202.732855 33.3139648,213.789551 C33.3139648,235.035751 40.2694617,245.658691 54.1806641,245.658691 C60.0703419,245.658691 66.1044613,243.852069 72.2832031,240.23877 L75.0473633,247.230469 Z M138.920923,252 L130.032251,252 L130.032251,214.060547 L103.854028,214.060547 L103.854028,252 L94.9653566,252 L94.9653566,175.524902 L103.854028,175.524902 L103.854028,206.255859 L130.032251,206.255859 L130.032251,175.524902 L138.920923,175.524902 L138.920923,252 Z M214.013721,252 L204.691455,252 L196.236377,225.225586 L171.142139,225.225586 L162.578662,252 L153.364795,252 L178.350635,175.524902 L189.027881,175.524902 L214.013721,252 Z M193.689014,217.475098 L183.662158,185.822754 L173.689502,217.475098 L193.689014,217.475098 Z M267.210035,252 L232.468335,252 L232.468335,244.249512 L245.638745,244.249512 L245.638745,183.275391 L232.468335,183.275391 L232.468335,175.524902 L267.210035,175.524902 L267.210035,183.275391 L254.527417,183.275391 L254.527417,244.249512 L267.210035,244.249512 L267.210035,252 Z M339.918067,252 L330.053809,252 L302.629004,191.62207 L302.629004,252 L293.740333,252 L293.740333,175.524902 L303.65879,175.524902 L331.191993,235.36084 L331.191993,175.524902 L339.918067,175.524902 L339.918067,252 Z" id="DIMENSIONCHAIN" fill="#5C6B80"></path>
    </g>
</svg>