<?xml version="1.0" encoding="UTF-8"?>
<svg width="250px" height="250px" viewBox="0 0 250 250" version="1.1" xmlns="http://www.w3.org/2000/svg" xmlns:xlink="http://www.w3.org/1999/xlink">
    <!-- Generator: Sketch 50.2 (55047) - http://www.bohemiancoding.com/sketch -->
    <title>HighlightR</title>
    <desc>Created with Sketch.</desc>
    <defs></defs>
    <g id="HighlightR" stroke="none" stroke-width="1" fill="none" fill-rule="evenodd">
        <g id="Group" transform="translate(15.000000, 15.000000)">
            <circle id="Oval-12" fill="#EFEFEF" cx="110" cy="110" r="110"></circle>
            <rect id="Rectangle-Copy" fill="#FFFFFF" x="15.0684932" y="45.8082192" width="191.671233" height="128.383562"></rect>
            <rect id="Rectangle" fill="#FAE568" x="78.3561644" y="44.6027397" width="128.383562" height="25.9178082"></rect>
            <path d="M39.1157298,191.60888 L39.1157298,189.322626 C39.1157298,188.289538 39.9532132,187.452055 40.9863014,187.452055 C42.0193895,187.452055 42.8568729,188.289538 42.8568729,189.322626 L42.8568729,191.60888 L45.1431271,191.60888 C46.1762152,191.60888 47.0136986,192.446364 47.0136986,193.479452 C47.0136986,194.51254 46.1762152,195.350024 45.1431271,195.350024 L42.8568729,195.350024 L42.8568729,197.636278 C42.8568729,198.669366 42.0193895,199.506849 40.9863014,199.506849 C39.9532132,199.506849 39.1157298,198.669366 39.1157298,197.636278 L39.1157298,195.350024 L36.8294757,195.350024 C35.7963875,195.350024 34.9589041,194.51254 34.9589041,193.479452 C34.9589041,192.446364 35.7963875,191.60888 36.8294757,191.60888 L39.1157298,191.60888 Z" id="Combined-Shape" fill="#616161"></path>
            <path d="M23.5301677,18.0198394 L23.5301677,15.7335853 C23.5301677,14.7004971 24.3676511,13.8630137 25.4007393,13.8630137 C26.4338274,13.8630137 27.2713108,14.7004971 27.2713108,15.7335853 L27.2713108,18.0198394 L29.557565,18.0198394 C30.5906531,18.0198394 31.4281365,18.8573228 31.4281365,19.890411 C31.4281365,20.9234991 30.5906531,21.7609825 29.557565,21.7609825 L27.2713108,21.7609825 L27.2713108,24.0472367 C27.2713108,25.0803248 26.4338274,25.9178082 25.4007393,25.9178082 C24.3676511,25.9178082 23.5301677,25.0803248 23.5301677,24.0472367 L23.5301677,21.7609825 L21.2439136,21.7609825 C20.2108254,21.7609825 19.373342,20.9234991 19.373342,19.890411 C19.373342,18.8573228 20.2108254,18.0198394 21.2439136,18.0198394 L23.5301677,18.0198394 Z" id="Combined-Shape-Copy" fill="#616161" transform="translate(25.400739, 19.890411) rotate(45.000000) translate(-25.400739, -19.890411) "></path>
            <path d="M125.013282,192.520131 L125.013282,191.399982 C125.013282,190.893821 125.423606,190.483496 125.929767,190.483496 C126.435928,190.483496 126.846253,190.893821 126.846253,191.399982 L126.846253,192.520131 L127.966402,192.520131 C128.472563,192.520131 128.882888,192.930456 128.882888,193.436617 C128.882888,193.942778 128.472563,194.353102 127.966402,194.353102 L126.846253,194.353102 L126.846253,195.473251 C126.846253,195.979412 126.435928,196.389737 125.929767,196.389737 C125.423606,196.389737 125.013282,195.979412 125.013282,195.473251 L125.013282,194.353102 L123.893133,194.353102 C123.386972,194.353102 122.976647,193.942778 122.976647,193.436617 C122.976647,192.930456 123.386972,192.520131 123.893133,192.520131 L125.013282,192.520131 Z" id="Combined-Shape-Copy-2" fill="#616161" transform="translate(125.929767, 193.436617) rotate(45.000000) translate(-125.929767, -193.436617) "></path>
            <circle id="Oval-13-Copy-3" fill="#616161" cx="181.424658" cy="16.8767123" r="3.01369863"></circle>
            <circle id="Oval-13-Copy-4" fill="#616161" cx="179.315068" cy="210.054795" r="2.10958904"></circle>
            <rect id="Rectangle-33" stroke="#5F65A5" stroke-width="9" x="14.1438356" y="46.0890411" width="191.712329" height="128.424658" rx="16"></rect>
            <path d="M14.1643836,71.4246575 L206.446859,71.4246575" id="Line" stroke="#5F65A5" stroke-width="9" stroke-linecap="square"></path>
            <path d="M78.0547945,49.1232877 L78.0547945,70.8219178" id="Line-Copy" stroke="#5F65A5" stroke-width="9" stroke-linecap="square"></path>
            <rect id="Rectangle-2" fill="#EFEFEF" x="5.42465753" y="109.69863" width="10.2465753" height="25.9178082"></rect>
            <rect id="Rectangle-2-Copy" fill="#EFEFEF" x="204.328767" y="109.69863" width="10.2465753" height="25.9178082"></rect>
            <circle id="Oval-17" fill="#5F65A5" cx="28.3287671" cy="57.8630137" r="3.01369863"></circle>
            <circle id="Oval-17-Copy-4" fill="#5F65A5" cx="11.7534247" cy="123.260274" r="3.91780822"></circle>
            <circle id="Oval-17-Copy-5" fill="#5F65A5" cx="208.246575" cy="123.260274" r="3.91780822"></circle>
            <circle id="Oval-17-Copy" fill="#5F65A5" cx="44" cy="57.8630137" r="3.01369863"></circle>
            <circle id="Oval-17-Copy-2" fill="#5F65A5" cx="59.6712329" cy="57.8630137" r="3.01369863"></circle>
            <rect id="Rectangle-34" fill="#92A6ED" x="28.3287671" y="86.1917808" width="163.945205" height="73.5342466"></rect>
            <rect id="Rectangle-34-Copy" stroke="#5F65A5" stroke-width="9" fill="#FFFFFF" x="55.130137" y="108.773973" width="110.342466" height="28.369863" rx="13"></rect>
            <rect id="Rectangle-35" fill="#5F65A5" x="67.5068493" y="120.547945" width="5.42465753" height="5.42465753"></rect>
            <rect id="Rectangle-35-Copy" fill="#5F65A5" x="76.5479452" y="120.547945" width="27.1232877" height="5.42465753"></rect>
            <rect id="Rectangle-35-Copy-2" fill="#5F65A5" x="19.890411" y="120.547945" width="22.9041096" height="5.42465753" rx="2.71232877"></rect>
            <rect id="Rectangle-35-Copy-3" fill="#5F65A5" x="176.60274" y="120.547945" width="22.9041096" height="5.42465753" rx="2.71232877"></rect>
            <circle id="Oval-17-Copy-3" fill="#000000" cx="147.369863" cy="123.260274" r="4.52054795"></circle>
            <path d="M109.376712,89.8351374 L109.376712,140.41454 C109.376712,158.851857 122.65491,174.712452 150.071369,188.003875 C176.689647,174.943391 189.582192,159.112781 189.582192,140.443521 L189.582192,89.8268267 C176.372288,89.3403727 163.204819,86.7116377 150.094577,81.9493064 C136.920482,86.7415699 123.3421,89.3712339 109.376712,89.8351374 Z" id="Rectangle-36" stroke="#5F65A5" stroke-width="9" fill="#50E391"></path>
            <path d="M130.480054,131.685533 L144.356164,145.561644" id="Line-2" stroke="#5F65A5" stroke-width="9" stroke-linecap="round"></path>
            <path d="M144.958904,145.561644 L170.904732,119.615816" id="Line-2-Copy" stroke="#5F65A5" stroke-width="9" stroke-linecap="round"></path>
        </g>
    </g>
</svg>