<?xml version="1.0" encoding="UTF-8"?>
<svg width="250px" height="250px" viewBox="0 0 250 250" version="1.1" xmlns="http://www.w3.org/2000/svg" xmlns:xlink="http://www.w3.org/1999/xlink">
    <!-- Generator: Sketch 50.2 (55047) - http://www.bohemiancoding.com/sketch -->
    <title>HighlightM</title>
    <desc>Created with Sketch.</desc>
    <defs></defs>
    <g id="HighlightM" stroke="none" stroke-width="1" fill="none" fill-rule="evenodd">
        <g id="Group" transform="translate(15.000000, 15.000000)">
            <circle id="Oval-12" fill="#EFEFEF" cx="110" cy="110" r="110"></circle>
            <circle id="Oval-14" stroke="#5F65A5" stroke-width="9" cx="110.30137" cy="109.69863" r="88.6027397"></circle>
            <path d="M28.630137,110 L61.8301004,110" id="Line" stroke="#5F65A5" stroke-width="9" stroke-linecap="round"></path>
            <path d="M158.219178,110 L191.419141,110" id="Line-Copy" stroke="#5F65A5" stroke-width="9" stroke-linecap="round"></path>
            <path d="M56.9499277,35.7482832 C70.1312107,46.0703084 87.7141115,51.231321 109.69863,51.231321 C131.683149,51.231321 149.67096,46.0703084 163.662063,35.7482832" id="Path-18" stroke="#5F65A5" stroke-width="9"></path>
            <path d="M56.0547945,171.178082 C69.2360775,181.500107 86.8189783,186.66112 108.803497,186.66112 C130.788016,186.66112 148.775826,181.500107 162.76693,171.178082" id="Path-18" stroke="#5F65A5" stroke-width="9" transform="translate(109.410862, 178.919601) scale(1, -1) translate(-109.410862, -178.919601) "></path>
            <path d="M84.0685899,100.972506 C101.94032,114.23278 125.779946,120.862917 155.587468,120.862917 C185.39499,120.862917 209.78361,114.23278 228.753328,100.972506" id="Path-18-Copy" stroke="#5F65A5" stroke-width="9" transform="translate(156.410959, 110.917711) scale(1, -1) rotate(90.000000) translate(-156.410959, -110.917711) "></path>
            <path d="M-8.7533279,99.7670265 C9.11840214,113.0273 32.9580282,119.657437 62.7655501,119.657437 C92.5730721,119.657437 116.961692,113.0273 135.93141,99.7670265" id="Path-18-Copy-2" stroke="#5F65A5" stroke-width="9" transform="translate(63.589041, 109.712232) scale(-1, -1) rotate(90.000000) translate(-63.589041, -109.712232) "></path>
            <circle id="Oval" stroke="#5F65A5" stroke-width="9" fill="#92A6ED" cx="57.260274" cy="36.1643836" r="10.5684932"></circle>
            <circle id="Oval-Copy-4" stroke="#5F65A5" stroke-width="9" fill="#92A6ED" cx="57.260274" cy="183.232877" r="10.5684932"></circle>
            <circle id="Oval-Copy-2" stroke="#5F65A5" stroke-width="9" fill="#FF6969" cx="21.6986301" cy="109.69863" r="10.5684932"></circle>
            <circle id="Oval-Copy" stroke="#5F65A5" stroke-width="9" fill="#92A6ED" cx="162.739726" cy="36.1643836" r="10.5684932"></circle>
            <circle id="Oval-Copy-5" stroke="#5F65A5" stroke-width="9" fill="#92A6ED" cx="162.739726" cy="183.232877" r="10.5684932"></circle>
            <circle id="Oval-Copy-3" stroke="#5F65A5" stroke-width="9" fill="#FF6969" cx="198.30137" cy="109.69863" r="10.5684932"></circle>
            <g id="Group-2" transform="translate(59.068493, 35.561644)">
                <circle id="Oval-16" fill="#EFEFEF" cx="51.2328767" cy="74.1369863" r="51.2328767"></circle>
                <rect id="Rectangle-32" fill="#EFEFEF" x="24.7123288" y="0" width="51.2328767" height="30.739726"></rect>
                <path d="M50.9315068,113.315068 C72.4025222,113.315068 89.8082192,95.9093715 89.8082192,74.4383562 C89.8082192,68.9417765 88.6675195,63.7116215 86.6099346,58.9717055 C83.3604485,51.4860895 77.8241592,45.2231786 70.8826404,41.0645467 C65.050051,37.5702692 58.2253487,35.5616438 50.9315068,35.5616438 C29.4604915,35.5616438 12.0547945,52.9673408 12.0547945,74.4383562 C12.0547945,95.9093715 29.4604915,113.315068 50.9315068,113.315068 Z" id="Oval-15" stroke="#5F65A5" stroke-width="9" fill="#92A6ED"></path>
                <rect id="Rectangle-31" stroke="#92A6ED" stroke-width="5" fill="#5F65A5" transform="translate(65.340583, 61.489339) rotate(-40.000000) translate(-65.340583, -61.489339) " x="43.5529113" y="56.2770103" width="43.5753425" height="10.4246575" rx="1"></rect>
                <circle id="Oval-2" stroke="#5F65A5" stroke-width="9" fill="#FFFFFF" cx="51.2328767" cy="74.1369863" r="8.43835616"></circle>
                <path d="M77.5475513,22.7410072 C85.2109707,29.6986118 90.440332,38.0925703 93.2356354,47.9228829 C97.7971786,63.9645745 93.4993235,78.6056045 93.4993235,78.6056045" id="Path-17-Copy" stroke="#EFEFEF" stroke-width="22" stroke-linecap="round" transform="translate(86.440618, 50.673306) rotate(-16.000000) translate(-86.440618, -50.673306) "></path>
                <path d="M77.2553966,26.5688863 C84.2729624,32.9401216 89.0616064,40.6266586 91.6213287,49.6284974 C95.7984366,64.318236 91.8627938,77.7253571 91.8627938,77.7253571" id="Path-17" stroke="#5F65A5" stroke-width="9" stroke-linecap="round" transform="translate(85.398978, 52.147122) rotate(-16.000000) translate(-85.398978, -52.147122) "></path>
                <path d="M50.9315068,35.260274 L50.9315068,22" id="Line-2" stroke="#5F65A5" stroke-width="9" stroke-linecap="square"></path>
                <rect id="Rectangle" stroke="#5F65A5" stroke-width="9" fill="#FFFFFF" x="36.4452055" y="10.5273973" width="28.369863" height="9.68493151" rx="4.84246575"></rect>
                <path d="M50.9315068,35.8630137 L50.9315068,41.2876712" id="Line-3" stroke="#5F65A5" stroke-width="9" stroke-linecap="round"></path>
                <path d="M50.9315068,107.589041 L50.9315068,113.013699" id="Line-3-Copy" stroke="#5F65A5" stroke-width="9" stroke-linecap="round"></path>
                <path d="M74.4383562,97.3424658 L78.6575342,101.561644" id="Line-3-Copy-4" stroke="#5F65A5" stroke-width="9" stroke-linecap="round"></path>
                <path d="M25.0136986,46.7123288 L29.2328767,50.9315068" id="Line-3-Copy-5" stroke="#5F65A5" stroke-width="9" stroke-linecap="round"></path>
                <path d="M25.6164384,101.561644 L29.2328767,97.9452055" id="Line-3-Copy-6" stroke="#5F65A5" stroke-width="9" stroke-linecap="round"></path>
                <path d="M18.9863014,74.4383562 L13.5616438,74.4383562" id="Line-3-Copy-2" stroke="#5F65A5" stroke-width="9" stroke-linecap="round"></path>
                <path d="M88.3013699,74.4383562 L82.8767123,74.4383562" id="Line-3-Copy-3" stroke="#5F65A5" stroke-width="9" stroke-linecap="round"></path>
            </g>
            <path d="M19.8280586,171.11573 L19.8280586,168.829476 C19.8280586,167.796388 20.665542,166.958904 21.6986301,166.958904 C22.7317183,166.958904 23.5692017,167.796388 23.5692017,168.829476 L23.5692017,171.11573 L25.8554558,171.11573 C26.888544,171.11573 27.7260274,171.953213 27.7260274,172.986301 C27.7260274,174.01939 26.888544,174.856873 25.8554558,174.856873 L23.5692017,174.856873 L23.5692017,177.143127 C23.5692017,178.176215 22.7317183,179.013699 21.6986301,179.013699 C20.665542,179.013699 19.8280586,178.176215 19.8280586,177.143127 L19.8280586,174.856873 L17.5418044,174.856873 C16.5087163,174.856873 15.6712329,174.01939 15.6712329,172.986301 C15.6712329,171.953213 16.5087163,171.11573 17.5418044,171.11573 L19.8280586,171.11573 Z" id="Combined-Shape" fill="#616161"></path>
            <path d="M17.5027705,6.65345539 L17.5027705,4.36720125 C17.5027705,3.33411311 18.3402539,2.49662969 19.373342,2.49662969 C20.4064302,2.49662969 21.2439136,3.33411311 21.2439136,4.36720125 L21.2439136,6.65345539 L23.5301677,6.65345539 C24.5632559,6.65345539 25.4007393,7.4909388 25.4007393,8.52402695 C25.4007393,9.5571151 24.5632559,10.3945985 23.5301677,10.3945985 L21.2439136,10.3945985 L21.2439136,12.6808526 C21.2439136,13.7139408 20.4064302,14.5514242 19.373342,14.5514242 C18.3402539,14.5514242 17.5027705,13.7139408 17.5027705,12.6808526 L17.5027705,10.3945985 L15.2165163,10.3945985 C14.1834282,10.3945985 13.3459448,9.5571151 13.3459448,8.52402695 C13.3459448,7.4909388 14.1834282,6.65345539 15.2165163,6.65345539 L17.5027705,6.65345539 Z" id="Combined-Shape-Copy" fill="#616161" transform="translate(19.373342, 8.524027) rotate(45.000000) translate(-19.373342, -8.524027) "></path>
            <path d="M208.191364,85.360966 L208.191364,84.240817 C208.191364,83.7346559 208.601689,83.3243314 209.10785,83.3243314 C209.614011,83.3243314 210.024335,83.7346559 210.024335,84.240817 L210.024335,85.360966 L211.144484,85.360966 C211.650645,85.360966 212.06097,85.7712906 212.06097,86.2774516 C212.06097,86.7836126 211.650645,87.1939372 211.144484,87.1939372 L210.024335,87.1939372 L210.024335,88.3140863 C210.024335,88.8202473 209.614011,89.2305718 209.10785,89.2305718 C208.601689,89.2305718 208.191364,88.8202473 208.191364,88.3140863 L208.191364,87.1939372 L207.071215,87.1939372 C206.565054,87.1939372 206.154729,86.7836126 206.154729,86.2774516 C206.154729,85.7712906 206.565054,85.360966 207.071215,85.360966 L208.191364,85.360966 Z" id="Combined-Shape-Copy-2" fill="#616161" transform="translate(209.107850, 86.277452) rotate(45.000000) translate(-209.107850, -86.277452) "></path>
            <circle id="Oval-13-Copy-3" fill="#616161" cx="188.657534" cy="21.0958904" r="3.01369863"></circle>
            <circle id="Oval-13-Copy-4" fill="#616161" cx="179.315068" cy="210.054795" r="2.10958904"></circle>
        </g>
    </g>
</svg>