<?xml version="1.0" encoding="UTF-8"?>
<svg width="250px" height="250px" viewBox="0 0 250 250" version="1.1" xmlns="http://www.w3.org/2000/svg" xmlns:xlink="http://www.w3.org/1999/xlink">
    <!-- Generator: Sketch 50.2 (55047) - http://www.bohemiancoding.com/sketch -->
    <title>HighlightP</title>
    <desc>Created with Sketch.</desc>
    <defs></defs>
    <g id="HighlightP" stroke="none" stroke-width="1" fill="none" fill-rule="evenodd">
        <g transform="translate(15.000000, 18.000000)">
            <circle id="Oval-12" fill="#EFEFEF" cx="109.999998" cy="108.239998" r="105.599998"></circle>
            <rect id="Rectangle-30-Copy" stroke="#FF6969" stroke-width="9" x="23.8599997" y="50.2599992" width="33.2399993" height="47.319999" rx="16.6199996"></rect>
            <rect id="Rectangle-27" stroke="#5F65A5" stroke-width="9" fill="#FF6969" x="56.4199991" y="69.6199989" width="109.799998" height="19.1599995"></rect>
            <rect id="Rectangle-27-Copy" stroke="#5F65A5" stroke-width="9" fill="#92A6ED" x="56.4199991" y="126.819998" width="109.799998" height="20.9199995"></rect>
            <rect id="Rectangle-26" stroke="#5F65A5" stroke-width="9" fill="#FFFFFF" x="37.0599994" y="34.4199995" width="148.519997" height="32.3599993" rx="11"></rect>
            <rect id="Rectangle-30" stroke="#92A6ED" stroke-width="9" x="165.539997" y="112.739998" width="33.2399993" height="47.319999" rx="16.6199996"></rect>
            <rect id="Rectangle-26-Copy" stroke="#5F65A5" stroke-width="9" fill="#FFFFFF" x="37.0599994" y="91.6199985" width="148.519997" height="32.3599993" rx="11"></rect>
            <rect id="Rectangle-26-Copy-2" stroke="#5F65A5" stroke-width="9" fill="#FFFFFF" x="37.0599994" y="148.819998" width="148.519997" height="32.3599993" rx="11"></rect>
            <rect id="Rectangle-28" stroke="#5F65A5" stroke-width="8" x="60.319999" y="56.7999991" width="37.7599992" height="10.4799997" rx="5.23999984"></rect>
            <rect id="Rectangle-28-Copy" stroke="#5F65A5" stroke-width="8" x="60.319999" y="113.999998" width="37.7599992" height="10.4799997" rx="5.23999984"></rect>
            <rect id="Rectangle-28-Copy-2" stroke="#5F65A5" stroke-width="8" x="60.319999" y="171.199997" width="37.7599992" height="10.4799997" rx="5.23999984"></rect>
            <path d="M126.129998,50.1599991 L151.069997,50.1599991" id="Line" stroke="#5F65A5" stroke-width="9" stroke-linecap="round"></path>
            <path d="M125.246665,108.239998 L151.066664,108.239998" id="Line-Copy" stroke="#5F65A5" stroke-width="9" stroke-linecap="round"></path>
            <path d="M125.226678,165.439997 L151.066664,165.439997" id="Line-Copy-2" stroke="#5F65A5" stroke-width="9" stroke-linecap="round"></path>
            <path d="M119.968274,183.039997 L219.718385,183.039997" id="Line-Copy-3" stroke="#5F65A5" stroke-width="9" stroke-linecap="round"></path>
            <path d="M1.16470586,183.039997 L19.9552938,183.039997" id="Line-Copy-4" stroke="#5F65A5" stroke-width="9" stroke-linecap="round"></path>
            <path d="M3.94482752,148.264825 L3.94482752,146.09517 C3.94482752,145.114769 4.73959927,144.319998 5.7199999,144.319998 C6.70040054,144.319998 7.49517229,145.114769 7.49517229,146.09517 L7.49517229,148.264825 L9.66482742,148.264825 C10.6452281,148.264825 11.4399998,149.059597 11.4399998,150.039997 C11.4399998,151.020398 10.6452281,151.81517 9.66482742,151.81517 L7.49517229,151.81517 L7.49517229,153.984825 C7.49517229,154.965226 6.70040054,155.759997 5.7199999,155.759997 C4.73959927,155.759997 3.94482752,154.965226 3.94482752,153.984825 L3.94482752,151.81517 L1.77517238,151.81517 C0.794771748,151.81517 0,151.020398 0,150.039997 C0,149.059597 0.794771748,148.264825 1.77517238,148.264825 L3.94482752,148.264825 Z" id="Combined-Shape" fill="#616161"></path>
            <path d="M182.584824,6.58482747 L182.584824,4.41517234 C182.584824,3.4347717 183.379596,2.63999995 184.359997,2.63999995 C185.340397,2.63999995 186.135169,3.4347717 186.135169,4.41517234 L186.135169,6.58482747 L188.304824,6.58482747 C189.285225,6.58482747 190.079997,7.37959922 190.079997,8.35999986 C190.079997,9.34040049 189.285225,10.1351722 188.304824,10.1351722 L186.135169,10.1351722 L186.135169,12.3048274 C186.135169,13.285228 185.340397,14.0799998 184.359997,14.0799998 C183.379596,14.0799998 182.584824,13.285228 182.584824,12.3048274 L182.584824,10.1351722 L180.415169,10.1351722 C179.434769,10.1351722 178.639997,9.34040049 178.639997,8.35999986 C178.639997,7.37959922 179.434769,6.58482747 180.415169,6.58482747 L182.584824,6.58482747 Z" id="Combined-Shape-Copy" fill="#616161" transform="translate(184.359997, 8.360000) rotate(45.000000) translate(-184.359997, -8.360000) "></path>
            <circle id="Oval-13" fill="#FF6969" cx="165.439997" cy="51.0399991" r="4.39999992"></circle>
            <circle id="Oval-13-Copy-3" fill="#616161" cx="15.8399997" cy="21.1199996" r="4.39999992"></circle>
            <circle id="Oval-13-Copy-4" fill="#616161" cx="176.439997" cy="204.599996" r="2.19999996"></circle>
            <circle id="Oval-13-Copy" fill="#5F65A5" cx="165.439997" cy="108.239998" r="4.39999992"></circle>
            <circle id="Oval-13-Copy-2" fill="#92A6ED" cx="165.439997" cy="165.439997" r="4.39999992"></circle>
            <rect id="Rectangle-29" fill="#5F65A5" x="61.5999989" y="43.1199993" width="5.27999991" height="5.27999991"></rect>
            <rect id="Rectangle-29-Copy-3" fill="#5F65A5" x="61.5999989" y="98.5599983" width="5.27999991" height="5.27999991"></rect>
            <rect id="Rectangle-29-Copy-6" fill="#5F65A5" x="61.5999989" y="155.759997" width="5.27999991" height="5.27999991"></rect>
            <rect id="Rectangle-29-Copy" fill="#5F65A5" x="77.4399987" y="43.1199993" width="5.27999991" height="5.27999991"></rect>
            <rect id="Rectangle-29-Copy-4" fill="#5F65A5" x="77.4399987" y="98.5599983" width="5.27999991" height="5.27999991"></rect>
            <rect id="Rectangle-29-Copy-7" fill="#5F65A5" x="77.4399987" y="155.759997" width="5.27999991" height="5.27999991"></rect>
            <rect id="Rectangle-29-Copy-2" fill="#5F65A5" x="93.2799984" y="43.1199993" width="5.27999991" height="5.27999991"></rect>
            <rect id="Rectangle-29-Copy-5" fill="#5F65A5" x="93.2799984" y="98.5599983" width="5.27999991" height="5.27999991"></rect>
            <rect id="Rectangle-29-Copy-8" fill="#5F65A5" x="93.2799984" y="155.759997" width="5.27999991" height="5.27999991"></rect>
        </g>
    </g>
</svg>