<?xml version="1.0" encoding="UTF-8"?>
<svg width="250px" height="250px" viewBox="0 0 250 250" version="1.1" xmlns="http://www.w3.org/2000/svg" xmlns:xlink="http://www.w3.org/1999/xlink">
    <!-- Generator: Sketch 50.2 (55047) - http://www.bohemiancoding.com/sketch -->
    <title>HighlightMM</title>
    <desc>Created with Sketch.</desc>
    <defs></defs>
    <g id="HighlightMM" stroke="none" stroke-width="1" fill="none" fill-rule="evenodd">
        <g id="Group" transform="translate(15.000000, 12.000000)">
            <circle id="Oval-12" fill="#EFEFEF" cx="110" cy="116.027397" r="110"></circle>
            <path d="M22.8417572,207.882853 L22.8417572,205.596599 C22.8417572,204.563511 23.6792406,203.726027 24.7123288,203.726027 C25.7454169,203.726027 26.5829003,204.563511 26.5829003,205.596599 L26.5829003,207.882853 L28.8691545,207.882853 C29.9022426,207.882853 30.739726,208.720337 30.739726,209.753425 C30.739726,210.786513 29.9022426,211.623996 28.8691545,211.623996 L26.5829003,211.623996 L26.5829003,213.91025 C26.5829003,214.943339 25.7454169,215.780822 24.7123288,215.780822 C23.6792406,215.780822 22.8417572,214.943339 22.8417572,213.91025 L22.8417572,211.623996 L20.5555031,211.623996 C19.5224149,211.623996 18.6849315,210.786513 18.6849315,209.753425 C18.6849315,208.720337 19.5224149,207.882853 20.5555031,207.882853 L22.8417572,207.882853 Z" id="Combined-Shape" fill="#616161"></path>
            <path d="M176.023318,6.65345539 L176.023318,4.36720125 C176.023318,3.33411311 176.860802,2.49662969 177.89389,2.49662969 C178.926978,2.49662969 179.764462,3.33411311 179.764462,4.36720125 L179.764462,6.65345539 L182.050716,6.65345539 C183.083804,6.65345539 183.921287,7.4909388 183.921287,8.52402695 C183.921287,9.5571151 183.083804,10.3945985 182.050716,10.3945985 L179.764462,10.3945985 L179.764462,12.6808526 C179.764462,13.7139408 178.926978,14.5514242 177.89389,14.5514242 C176.860802,14.5514242 176.023318,13.7139408 176.023318,12.6808526 L176.023318,10.3945985 L173.737064,10.3945985 C172.703976,10.3945985 171.866493,9.5571151 171.866493,8.52402695 C171.866493,7.4909388 172.703976,6.65345539 173.737064,6.65345539 L176.023318,6.65345539 Z" id="Combined-Shape-Copy" fill="#616161" transform="translate(177.893890, 8.524027) rotate(45.000000) translate(-177.893890, -8.524027) "></path>
            <path d="M125.013282,198.547528 L125.013282,197.427379 C125.013282,196.921218 125.423606,196.510894 125.929767,196.510894 C126.435928,196.510894 126.846253,196.921218 126.846253,197.427379 L126.846253,198.547528 L127.966402,198.547528 C128.472563,198.547528 128.882888,198.957853 128.882888,199.464014 C128.882888,199.970175 128.472563,200.3805 127.966402,200.3805 L126.846253,200.3805 L126.846253,201.500649 C126.846253,202.00681 126.435928,202.417134 125.929767,202.417134 C125.423606,202.417134 125.013282,202.00681 125.013282,201.500649 L125.013282,200.3805 L123.893133,200.3805 C123.386972,200.3805 122.976647,199.970175 122.976647,199.464014 C122.976647,198.957853 123.386972,198.547528 123.893133,198.547528 L125.013282,198.547528 Z" id="Combined-Shape-Copy-2" fill="#616161" transform="translate(125.929767, 199.464014) rotate(45.000000) translate(-125.929767, -199.464014) "></path>
            <circle id="Oval-13-Copy-3" fill="#616161" cx="28.3287671" cy="44" r="3.01369863"></circle>
            <circle id="Oval-13-Copy-4" fill="#616161" cx="206.438356" cy="199.205479" r="2.10958904"></circle>
            <rect id="Rectangle-2" fill="#EFEFEF" x="5.42465753" y="115.726027" width="10.2465753" height="25.9178082"></rect>
            <rect id="Rectangle-2-Copy" fill="#EFEFEF" x="204.328767" y="115.726027" width="10.2465753" height="25.9178082"></rect>
            <rect id="Rectangle-37-Copy-2" stroke="#5F65A5" stroke-width="9" fill="#FF6969" transform="translate(92.844641, 89.692016) rotate(-78.000000) translate(-92.844641, -89.692016) " x="22.4245461" y="47.4017711" width="140.840191" height="84.5804908" rx="16"></rect>
            <rect id="Rectangle-37-Copy" stroke="#5F65A5" stroke-width="9" fill="#92A6ED" transform="translate(122.741974, 88.328557) rotate(-60.000000) translate(-122.741974, -88.328557) " x="52.3218789" y="46.0383121" width="140.840191" height="84.5804908" rx="16"></rect>
            <rect id="Rectangle-39" fill="#5F65A5" transform="translate(127.702192, 47.144092) rotate(-60.000000) translate(-127.702192, -47.144092) " x="96.0583566" y="34.1851874" width="63.2876712" height="25.9178082"></rect>
            <rect id="Rectangle-37" stroke="#5F65A5" stroke-width="9" fill="#FFFFFF" x="23.3425772" y="72.0575783" width="168.808219" height="113.356164" rx="16"></rect>
            <path d="M47.3150685,85.890411 L167.863014,85.890411" id="Line" stroke="#5F65A5" stroke-width="9" stroke-linecap="round"></path>
            <path d="M47.4727142,171.530181 L168.020659,171.530181" id="Line-Copy-2" stroke="#5F65A5" stroke-width="9" stroke-linecap="round"></path>
            <path d="M36.0206594,120.900044 L36.0206594,162.00676" id="Line-Copy" stroke="#5F65A5" stroke-width="9" stroke-linecap="round"></path>
            <path d="M36.0206594,96.1877153 L36.0206594,99.2014139" id="Line-Copy-3" stroke="#5F65A5" stroke-width="9" stroke-linecap="round"></path>
            <rect id="Rectangle-34-Copy-2" fill="#92A6ED" x="47.1713443" y="95.8863454" width="121.150685" height="66.3013699" rx="33.1506849"></rect>
            <rect id="Rectangle-38" stroke="#5F65A5" stroke-width="9" fill="#FAE568" x="140.876824" y="110.030181" width="56.6986301" height="38.0136986" rx="17"></rect>
            <circle id="Oval-18" stroke="#5F65A5" stroke-width="9" fill="#FFFFFF" cx="158.678194" cy="129.03703" r="8.43835616"></circle>
        </g>
    </g>
</svg>