<?xml version="1.0" encoding="UTF-8"?>
<svg width="523px" height="271px" viewBox="0 0 523 271" version="1.1" xmlns="http://www.w3.org/2000/svg" xmlns:xlink="http://www.w3.org/1999/xlink">
    <!-- Generator: Sketch 50.2 (55047) - http://www.bohemiancoding.com/sketch -->
    <title>Group 2 Copy</title>
    <desc>Created with Sketch.</desc>
    <defs></defs>
    <g id="Page-1" stroke="none" stroke-width="1" fill="none" fill-rule="evenodd">
        <g id="方案4" transform="translate(-101.000000, -358.000000)">
            <g id="Group-2-Copy" transform="translate(85.000000, 367.000000)">
                <path d="M38.5389995,192.36 C43.3736904,192.36 47.5386487,193.225658 51.0339995,194.957 C54.5293504,196.688342 57.4203214,199.056652 59.7069995,202.062 C61.9936776,205.067348 63.6923273,208.611646 64.8029995,212.695 C65.9136718,216.778354 66.4689995,221.13931 66.4689995,225.778 C66.4689995,230.482024 65.9136718,234.875646 64.8029995,238.959 C63.6923273,243.042354 62.0100108,246.602985 59.7559995,249.641 C57.5019883,252.679015 54.6600167,255.063658 51.2299995,256.795 C47.7999824,258.526342 43.7330231,259.392 39.0289995,259.392 L20.6049995,259.392 C18.6449897,259.392 17.4690015,259.114336 17.0769995,258.559 C16.6849976,258.003664 16.4889995,257.007341 16.4889995,255.57 L16.4889995,196.182 C16.4889995,194.744659 16.6849976,193.748336 17.0769995,193.193 C17.4690015,192.637664 18.6449897,192.36 20.6049995,192.36 L38.5389995,192.36 Z M24.1329995,252.826 L39.0289995,252.826 C45.2356972,252.826 50.0703156,250.474024 53.5329995,245.77 C56.9956835,241.065976 58.7269995,234.304044 58.7269995,225.484 C58.7269995,216.925291 56.946684,210.359356 53.3859995,205.786 C49.8253151,201.212644 44.2230378,198.926 36.5789995,198.926 L24.1329995,198.926 L24.1329995,252.826 Z M97.0909997,256.452 C97.0909997,259.065346 95.8496787,260.372 93.3669997,260.372 C90.8189869,260.372 89.5449997,259.065346 89.5449997,256.452 L89.5449997,211.764 C89.5449997,210.261326 89.9043294,209.19967 90.6229997,208.579 C91.3416699,207.95833 92.2563274,207.648 93.3669997,207.648 C94.4776719,207.648 95.3759962,207.941997 96.0619997,208.53 C96.7480031,209.118003 97.0909997,210.195992 97.0909997,211.764 L97.0909997,256.452 Z M88.3689997,195.398 C88.3689997,194.025993 88.8426616,192.850005 89.7899997,191.87 C90.7373377,190.889995 91.9296591,190.4 93.3669997,190.4 C94.7390065,190.4 95.8986616,190.889995 96.8459997,191.87 C97.7933377,192.850005 98.2669997,194.025993 98.2669997,195.398 C98.2669997,196.770007 97.7933377,197.945995 96.8459997,198.926 C95.8986616,199.906005 94.7390065,200.396 93.3669997,200.396 C91.9296591,200.396 90.7373377,199.906005 89.7899997,198.926 C88.8426616,197.945995 88.3689997,196.770007 88.3689997,195.398 Z M188.865,228.62 C188.865,218.819951 185.010372,213.92 177.301,213.92 C175.406324,213.92 173.626008,214.181331 171.96,214.704 C170.293991,215.226669 168.840339,216.092327 167.599,217.301 C166.35766,218.509673 165.37767,220.09399 164.659,222.054 C163.94033,224.01401 163.581,226.398653 163.581,229.208 L163.581,256.844 C163.581,259.065344 162.339679,260.241333 159.857,260.372 C157.308987,260.372 156.035,259.196012 156.035,256.844 L156.035,230.972 C156.035,228.162653 155.839002,225.680011 155.447,223.524 C155.054998,221.367989 154.385338,219.571341 153.438,218.134 C152.490662,216.696659 151.216674,215.61867 149.616,214.9 C148.015325,214.18133 145.973679,213.822 143.491,213.822 C141.857658,213.822 140.257008,214.066998 138.689,214.557 C137.120992,215.047002 135.700006,215.879994 134.426,217.056 C133.151993,218.232006 132.123004,219.79999 131.339,221.76 C130.554996,223.72001 130.163,226.169985 130.163,229.11 L130.163,256.844 C130.163,259.196012 128.856346,260.372 126.243,260.372 C123.825654,260.372 122.617,259.196012 122.617,256.844 L122.617,210.98 C122.617,209.803994 122.910997,208.954669 123.499,208.432 C124.087003,207.909331 125.066993,207.648 126.439,207.648 C128.856345,207.648 130.065,208.758656 130.065,210.98 L130.065,216.566 C130.587669,215.193993 131.355328,213.920006 132.368,212.744 C133.380672,211.567994 134.523993,210.571671 135.798,209.755 C137.072006,208.938329 138.427659,208.285002 139.865,207.795 C141.30234,207.304998 142.772326,207.06 144.275,207.06 C148.325687,207.06 151.771986,207.925658 154.614,209.657 C157.456014,211.388342 159.432328,213.887317 160.543,217.154 C162.241675,214.213985 164.577318,211.796676 167.55,209.902 C170.522681,208.007324 173.96898,207.06 177.889,207.06 C180.306345,207.06 182.609322,207.435663 184.798,208.187 C186.986677,208.938337 188.897658,210.065326 190.531,211.568 C192.164341,213.070674 193.470995,214.916322 194.451,217.105 C195.431005,219.293678 195.921,221.857985 195.921,224.798 L195.921,256.844 C195.921,257.889339 195.708669,258.72233 195.284,259.343 C194.859331,259.96367 193.993673,260.306666 192.687,260.372 C191.314993,260.372 190.335003,260.094336 189.747,259.539 C189.158997,258.983664 188.865,258.08534 188.865,256.844 L188.865,228.62 Z M251.925,231.266 C251.925,229.175323 251.745335,227.068344 251.386,224.945 C251.026665,222.821656 250.357005,220.894342 249.377,219.163 C248.396995,217.431658 247.041342,216.027005 245.31,214.949 C243.578658,213.870995 241.37368,213.332 238.695,213.332 C235.820319,213.332 233.452009,213.95266 231.59,215.194 C229.727991,216.43534 228.241672,217.954324 227.131,219.751 C226.020328,221.547676 225.236336,223.491323 224.779,225.582 C224.321664,227.672677 224.093,229.567325 224.093,231.266 L251.925,231.266 Z M238.989,261.352 C235.199648,261.352 231.900347,260.633341 229.091,259.196 C226.281653,257.758659 223.946009,255.815012 222.084,253.365 C220.221991,250.914988 218.833671,248.056683 217.919,244.79 C217.004329,241.523317 216.547,238.060685 216.547,234.402 C216.547,230.743315 217.020662,227.248017 217.968,223.916 C218.915338,220.583983 220.319991,217.644013 222.182,215.096 C224.044009,212.547987 226.379653,210.522674 229.189,209.02 C231.998347,207.517326 235.264981,206.766 238.989,206.766 C242.517018,206.766 245.554987,207.419327 248.103,208.726 C250.651013,210.032673 252.725325,211.763989 254.326,213.92 C255.926675,216.076011 257.118996,218.574986 257.903,221.417 C258.687004,224.259014 259.079,227.247984 259.079,230.384 C259.079,232.801345 258.76867,234.516328 258.148,235.529 C257.52733,236.541672 256.367675,237.048 254.669,237.048 L224.093,237.048 C224.027666,239.138677 224.321663,241.229323 224.975,243.32 C225.628336,245.410677 226.591994,247.305325 227.866,249.004 C229.140006,250.702675 230.724324,252.090995 232.619,253.169 C234.513676,254.247005 236.702321,254.786 239.185,254.786 C242.386349,254.786 245.081322,254.345004 247.27,253.463 C249.458677,252.580996 251.369658,251.192676 253.003,249.298 C253.656336,248.57933 254.276997,248.138334 254.865,247.975 C255.453003,247.811666 255.975664,247.795333 256.433,247.926 C256.890336,248.056667 257.265998,248.301665 257.56,248.661 C257.854001,249.020335 258.066333,249.363332 258.197,249.69 C258.654336,250.474004 258.57267,251.519327 257.952,252.826 C257.33133,254.132673 256.188008,255.422994 254.522,256.697 C252.855992,257.971006 250.716346,259.065329 248.103,259.98 C245.489653,260.894671 242.451684,261.352 238.989,261.352 Z M313.123,227.934 C313.123,222.641974 312.110343,218.918011 310.085,216.762 C308.059657,214.605989 305.08702,213.528 301.167,213.528 C299.468325,213.528 297.769675,213.772998 296.071,214.263 C294.372325,214.753002 292.837007,215.553328 291.465,216.664 C290.092993,217.774672 288.966004,219.211991 288.084,220.976 C287.201996,222.740009 286.761,224.895987 286.761,227.444 L286.761,256.844 C286.761,259.196012 285.519679,260.372 283.037,260.372 C281.926328,260.372 281.028003,260.045337 280.342,259.392 C279.655997,258.738663 279.313,257.889339 279.313,256.844 L279.313,211.176 C279.313,209.999994 279.655997,209.118003 280.342,208.53 C281.028003,207.941997 281.958994,207.648 283.135,207.648 C285.552345,207.648 286.761,208.823988 286.761,211.176 L286.761,216.664 C287.349003,215.487994 288.149328,214.312006 289.162,213.136 C290.174672,211.959994 291.366993,210.898338 292.739,209.951 C294.111007,209.003662 295.646325,208.236003 297.345,207.648 C299.043675,207.059997 300.87299,206.766 302.833,206.766 C305.381013,206.766 307.732989,207.12533 309.889,207.844 C312.045011,208.56267 313.906992,209.656993 315.475,211.127 C317.043008,212.597007 318.284329,214.475322 319.199,216.762 C320.113671,219.048678 320.571,221.759984 320.571,224.896 L320.571,256.844 C320.571,259.196012 319.329679,260.372 316.847,260.372 C314.364321,260.372 313.123,259.196012 313.123,256.844 L313.123,227.934 Z M358.739,254.198 C361.875016,254.198 364.537323,253.381341 366.726,251.748 C368.914678,250.114658 370.009,248.024013 370.009,245.476 C370.009,244.299994 369.829335,243.271004 369.47,242.389 C369.110665,241.506996 368.457338,240.690337 367.51,239.939 C366.562662,239.187663 365.239675,238.469003 363.541,237.783 C361.842325,237.096997 359.65368,236.39467 356.975,235.676 C354.230986,234.95733 351.862677,234.206004 349.87,233.422 C347.877323,232.637996 346.227673,231.723339 344.921,230.678 C343.614327,229.632661 342.65067,228.375007 342.03,226.905 C341.40933,225.434993 341.099,223.622011 341.099,221.466 C341.099,219.244656 341.556329,217.252009 342.471,215.488 C343.385671,213.723991 344.643325,212.22134 346.244,210.98 C347.844675,209.73866 349.706656,208.791337 351.83,208.138 C353.953344,207.484663 356.223655,207.158 358.641,207.158 C361.189013,207.158 363.508323,207.435664 365.599,207.991 C367.689677,208.546336 369.486326,209.248662 370.989,210.098 C372.491674,210.947338 373.667663,211.845662 374.517,212.793 C375.366338,213.740338 375.791,214.638662 375.791,215.488 C375.791,216.533339 375.562336,217.513329 375.105,218.428 C374.647664,219.342671 373.896339,219.8 372.851,219.8 C372.393664,219.8 371.936336,219.620335 371.479,219.261 C371.021664,218.901665 370.368338,218.36267 369.519,217.644 C368.016326,216.467994 366.513674,215.52067 365.011,214.802 C363.508326,214.08333 361.385014,213.691334 358.641,213.626 C357.334327,213.626 356.076673,213.772999 354.868,214.067 C353.659327,214.361001 352.565005,214.834663 351.585,215.488 C350.604995,216.141337 349.821003,216.941662 349.233,217.889 C348.644997,218.836338 348.351,219.963327 348.351,221.27 C348.351,222.446006 348.563331,223.409663 348.988,224.161 C349.412669,224.912337 350.131328,225.59833 351.144,226.219 C352.156672,226.83967 353.495992,227.427664 355.162,227.983 C356.828008,228.538336 358.934987,229.17533 361.483,229.894 C363.704345,230.547337 365.79499,231.249663 367.755,232.001 C369.71501,232.752337 371.41366,233.699661 372.851,234.843 C374.288341,235.986339 375.415329,237.358325 376.232,238.959 C377.048671,240.559675 377.457,242.568655 377.457,244.986 C377.457,247.403345 376.901672,249.59199 375.791,251.552 C374.680328,253.51201 373.210343,255.177993 371.381,256.55 C369.551658,257.922007 367.510011,258.983663 365.256,259.735 C363.001989,260.486337 360.699012,260.862 358.347,260.862 C355.602986,260.862 353.087678,260.50267 350.801,259.784 C348.514322,259.06533 346.570675,258.183339 344.97,257.138 C343.369325,256.092661 342.128005,255.031005 341.246,253.953 C340.363996,252.874995 339.923,251.97667 339.923,251.258 C339.923,250.473996 340.118998,249.592005 340.511,248.612 C340.903002,247.631995 341.621662,247.174666 342.667,247.24 C343.320337,247.24 344.00633,247.615663 344.725,248.367 C345.44367,249.118337 346.374661,249.918662 347.518,250.768 C348.661339,251.617338 350.131324,252.40133 351.928,253.12 C353.724676,253.83867 355.994986,254.198 358.739,254.198 Z M406.021,256.452 C406.021,259.065346 404.779679,260.372 402.297,260.372 C399.748987,260.372 398.475,259.065346 398.475,256.452 L398.475,211.764 C398.475,210.261326 398.83433,209.19967 399.553,208.579 C400.27167,207.95833 401.186328,207.648 402.297,207.648 C403.407672,207.648 404.305997,207.941997 404.992,208.53 C405.678004,209.118003 406.021,210.195992 406.021,211.764 L406.021,256.452 Z M397.299,195.398 C397.299,194.025993 397.772662,192.850005 398.72,191.87 C399.667338,190.889995 400.85966,190.4 402.297,190.4 C403.669007,190.4 404.828662,190.889995 405.776,191.87 C406.723338,192.850005 407.197,194.025993 407.197,195.398 C407.197,196.770007 406.723338,197.945995 405.776,198.926 C404.828662,199.906005 403.669007,200.396 402.297,200.396 C400.85966,200.396 399.667338,199.906005 398.72,198.926 C397.772662,197.945995 397.299,196.770007 397.299,195.398 Z M452.225,206.668 C456.406355,206.668 459.999652,207.419326 463.005,208.922 C466.010349,210.424674 468.492991,212.449987 470.453,214.998 C472.41301,217.546013 473.850329,220.485983 474.765,223.818 C475.679672,227.150017 476.137,230.677981 476.137,234.402 C476.137,238.126019 475.663338,241.63765 474.716,244.937 C473.768662,248.23635 472.31501,251.127321 470.355,253.61 C468.394991,256.092679 465.912349,258.052659 462.907,259.49 C459.901652,260.927341 456.341021,261.646 452.225,261.646 C448.10898,261.646 444.548349,260.911007 441.543,259.441 C438.537652,257.970993 436.071343,255.978346 434.144,253.463 C432.216657,250.947654 430.795672,248.04035 429.881,244.741 C428.966329,241.44165 428.509,237.930019 428.509,234.206 C428.509,230.481981 428.949996,226.954017 429.832,223.622 C430.714005,220.289983 432.118657,217.366346 434.046,214.851 C435.973343,212.335654 438.423319,210.343007 441.396,208.873 C444.368682,207.402993 447.978312,206.668 452.225,206.668 Z M452.225,255.08 C454.838347,255.08 457.157657,254.590005 459.183,253.61 C461.208344,252.629995 462.906993,251.241676 464.279,249.445 C465.651007,247.648324 466.69633,245.476013 467.415,242.928 C468.133671,240.379987 468.493,237.570682 468.493,234.5 C468.493,231.363984 468.166337,228.50568 467.513,225.925 C466.859664,223.34432 465.847007,221.123009 464.475,219.261 C463.102993,217.398991 461.388011,215.961672 459.33,214.949 C457.27199,213.936328 454.838348,213.43 452.029,213.43 C449.219653,213.43 446.802344,213.952661 444.777,214.998 C442.751657,216.043339 441.102007,217.496991 439.828,219.359 C438.553994,221.221009 437.623003,223.425987 437.035,225.974 C436.446997,228.522013 436.153,231.298652 436.153,234.304 C436.153,237.374682 436.495997,240.183987 437.182,242.732 C437.868004,245.280013 438.88066,247.468658 440.22,249.298 C441.55934,251.127342 443.225324,252.548328 445.218,253.561 C447.210677,254.573672 449.54632,255.08 452.225,255.08 Z M530.769,227.934 C530.769,222.641974 529.756344,218.918011 527.731,216.762 C525.705657,214.605989 522.73302,213.528 518.813,213.528 C517.114325,213.528 515.415676,213.772998 513.717,214.263 C512.018325,214.753002 510.483007,215.553328 509.111,216.664 C507.738994,217.774672 506.612005,219.211991 505.73,220.976 C504.847996,222.740009 504.407,224.895987 504.407,227.444 L504.407,256.844 C504.407,259.196012 503.16568,260.372 500.683,260.372 C499.572328,260.372 498.674004,260.045337 497.988,259.392 C497.301997,258.738663 496.959,257.889339 496.959,256.844 L496.959,211.176 C496.959,209.999994 497.301997,209.118003 497.988,208.53 C498.674004,207.941997 499.604995,207.648 500.781,207.648 C503.198346,207.648 504.407,208.823988 504.407,211.176 L504.407,216.664 C504.995003,215.487994 505.795329,214.312006 506.808,213.136 C507.820672,211.959994 509.012994,210.898338 510.385,209.951 C511.757007,209.003662 513.292325,208.236003 514.991,207.648 C516.689676,207.059997 518.518991,206.766 520.479,206.766 C523.027013,206.766 525.37899,207.12533 527.535,207.844 C529.691011,208.56267 531.552993,209.656993 533.121,211.127 C534.689008,212.597007 535.930329,214.475322 536.845,216.762 C537.759672,219.048678 538.217,221.759984 538.217,224.896 L538.217,256.844 C538.217,259.196012 536.97568,260.372 534.493,260.372 C532.010321,260.372 530.769,259.196012 530.769,256.844 L530.769,227.934 Z" id="Dimension" fill="#141414"></path>
                <g id="Group" transform="translate(103.000000, 0.000000)" stroke="#141414" stroke-linecap="round" stroke-linejoin="round" stroke-width="18">
                    <path d="M1.5,4.5 L1.5,152.554044" id="Line"></path>
                    <path d="M115.5,0.5 L115.5,148.554044" id="Line-Copy-2"></path>
                    <path d="M197.5,0.5 L197.5,148.554044" id="Line-Copy-4"></path>
                    <path d="M307.5,5.5 L307.5,153.554044" id="Line-Copy-5"></path>
                    <path d="M46.5,50.8038477 L46.5,128.010368" id="Line-Copy"></path>
                    <path d="M156.5,78.9547318 L156.5,148.010368" id="Line-Copy-3"></path>
                    <path d="M266.5,107 L266.5,152.010368" id="Line-Copy-6"></path>
                    <path d="M347.5,4 L347.5,49.0103682" id="Line-Copy-7"></path>
                </g>
            </g>
        </g>
    </g>
</svg>