<?xml version="1.0" encoding="UTF-8"?>
<svg width="350px" height="331px" viewBox="0 0 350 331" version="1.1" xmlns="http://www.w3.org/2000/svg" xmlns:xlink="http://www.w3.org/1999/xlink">
    <!-- Generator: Sketch 50.2 (55047) - http://www.bohemiancoding.com/sketch -->
    <title>PermanentStorage</title>
    <desc>Created with Sketch.</desc>
    <defs>
        <polygon id="path-1" points="38.9607782 63.7076509 42.231789 59.9374651 219.586819 121.780517 300.842924 270.178032 297.631106 273.879992 99.3221045 234.231741"></polygon>
        <filter x="-23.7%" y="-11.2%" width="134.4%" height="142.1%" filterUnits="objectBoundingBox" id="filter-2">
            <feOffset dx="-17" dy="21" in="SourceAlpha" result="shadowOffsetOuter1"></feOffset>
            <feGaussianBlur stdDeviation="11.5" in="shadowOffsetOuter1" result="shadowBlurOuter1"></feGaussianBlur>
            <feColorMatrix values="0 0 0 0 0   0 0 0 0 0.00195518749   0 0 0 0 0.267724277  0 0 0 0.120442708 0" type="matrix" in="shadowBlurOuter1"></feColorMatrix>
        </filter>
        <path d="M78.0615942,21.616463 L115.553543,0.280733285" id="path-3"></path>
        <filter x="-25.0%" y="-43.4%" width="149.9%" height="186.8%" filterUnits="objectBoundingBox" id="filter-4">
            <feMorphology radius="1.5" operator="dilate" in="SourceAlpha" result="shadowSpreadOuter1"></feMorphology>
            <feOffset dx="0" dy="0" in="shadowSpreadOuter1" result="shadowOffsetOuter1"></feOffset>
            <feMorphology radius="2" operator="erode" in="SourceAlpha" result="shadowInner"></feMorphology>
            <feOffset dx="0" dy="0" in="shadowInner" result="shadowInner"></feOffset>
            <feComposite in="shadowOffsetOuter1" in2="shadowInner" operator="out" result="shadowOffsetOuter1"></feComposite>
            <feGaussianBlur stdDeviation="2" in="shadowOffsetOuter1" result="shadowBlurOuter1"></feGaussianBlur>
            <feColorMatrix values="0 0 0 0 1   0 0 0 0 1   0 0 0 0 1  0 0 0 0.5 0" type="matrix" in="shadowBlurOuter1"></feColorMatrix>
        </filter>
        <path d="M78.0615942,49.1283249 L115.553543,27.7925953" id="path-5"></path>
        <filter x="-25.0%" y="-43.4%" width="149.9%" height="186.8%" filterUnits="objectBoundingBox" id="filter-6">
            <feMorphology radius="1.5" operator="dilate" in="SourceAlpha" result="shadowSpreadOuter1"></feMorphology>
            <feOffset dx="0" dy="0" in="shadowSpreadOuter1" result="shadowOffsetOuter1"></feOffset>
            <feMorphology radius="2" operator="erode" in="SourceAlpha" result="shadowInner"></feMorphology>
            <feOffset dx="0" dy="0" in="shadowInner" result="shadowInner"></feOffset>
            <feComposite in="shadowOffsetOuter1" in2="shadowInner" operator="out" result="shadowOffsetOuter1"></feComposite>
            <feGaussianBlur stdDeviation="2" in="shadowOffsetOuter1" result="shadowBlurOuter1"></feGaussianBlur>
            <feColorMatrix values="0 0 0 0 0.561237374   0 0 0 0 0.763808294   0 0 0 0 1  0 0 0 1 0" type="matrix" in="shadowBlurOuter1"></feColorMatrix>
        </filter>
        <path d="M78.0615942,77.2016535 L115.553543,55.8659238" id="path-7"></path>
        <filter x="-25.0%" y="-43.4%" width="149.9%" height="186.8%" filterUnits="objectBoundingBox" id="filter-8">
            <feMorphology radius="1.5" operator="dilate" in="SourceAlpha" result="shadowSpreadOuter1"></feMorphology>
            <feOffset dx="0" dy="0" in="shadowSpreadOuter1" result="shadowOffsetOuter1"></feOffset>
            <feMorphology radius="2" operator="erode" in="SourceAlpha" result="shadowInner"></feMorphology>
            <feOffset dx="0" dy="0" in="shadowInner" result="shadowInner"></feOffset>
            <feComposite in="shadowOffsetOuter1" in2="shadowInner" operator="out" result="shadowOffsetOuter1"></feComposite>
            <feGaussianBlur stdDeviation="2" in="shadowOffsetOuter1" result="shadowBlurOuter1"></feGaussianBlur>
            <feColorMatrix values="0 0 0 0 0.561237374   0 0 0 0 0.763808294   0 0 0 0 1  0 0 0 1 0" type="matrix" in="shadowBlurOuter1"></feColorMatrix>
        </filter>
        <linearGradient x1="35.9939617%" y1="50%" x2="55.5492657%" y2="76.2441315%" id="linearGradient-9">
            <stop stop-color="#FCF53C" stop-opacity="0.338230299" offset="0%"></stop>
            <stop stop-color="#FFFFFF" stop-opacity="0" offset="100%"></stop>
        </linearGradient>
    </defs>
    <g id="Page-1" stroke="none" stroke-width="1" fill="none" fill-rule="evenodd">
        <g id="Artboard-2">
            <g id="PermanentStorage" transform="translate(6.000000, 0.000000)">
                <circle id="Oval-10" fill="#E4E7F0" cx="171.5" cy="1.5" r="1.5"></circle>
                <g id="Group-4-Copy-11" transform="translate(0.000000, 19.000000)">
                    <g id="Rectangle-2-Copy-12" transform="translate(169.901851, 166.908728) rotate(-41.000000) translate(-169.901851, -166.908728) ">
                        <use fill="black" fill-opacity="1" filter="url(#filter-2)" xlink:href="#path-1"></use>
                        <use fill="#AFB8D7" fill-rule="evenodd" xlink:href="#path-1"></use>
                    </g>
                    <polygon id="Rectangle-2-Copy-13" fill="#EDF0FD" transform="translate(169.929893, 164.391762) rotate(-41.000000) translate(-169.929893, -164.391762) " points="40.6221691 59.2404602 239.536572 99.7710159 299.237618 269.543064 100.963506 229.538811"></polygon>
                </g>
                <g id="Group" transform="translate(162.500000, 112.500000) scale(-1, 1) translate(-162.500000, -112.500000) translate(93.000000, 6.000000)">
                    <path d="M3.40546561,173.105753 L68.93679,135.937431 C73.4201946,133.432742 80.7296242,133.375487 85.2643136,135.937431 L135.012808,164.211345 C137.365921,165.550621 139,166.842695 139,168.925212 C139,171.007729 137.458742,172.41777 135.012808,173.800538 L68.6533056,211.362921 C64.7006781,213.532151 56.7029793,213.559193 52.801462,211.362921 L3.40546561,183.313203 C-1.16466851,180.689166 -1.10554567,175.664326 3.40546561,173.105753 Z" id="Path-5-Copy-3" fill="#192763" opacity="0.401381341"></path>
                    <g id="Group-2" transform="translate(0.000000, 98.869159)">
                        <path d="M6.30899847e-05,44.0308562 C2.98899945,42.3603824 49.3223118,39.3703037 139,35.0606199 C139,46.4688971 139,52.8532205 139,54.2135901 C139,56.2541445 137.325778,57.5511985 135.012808,58.8593316 L68.6533056,96.437047 C64.7006781,98.6071628 56.7029793,98.634215 52.801462,96.437047 L3.40546561,68.3758794 C1.11800153,67.0619485 -0.00971900491,65.1463117 6.3089985e-05,63.239518 C0.00657081913,61.9709864 0.00657081913,55.5680991 6.30899847e-05,44.0308562 Z" id="Path-5" fill="#7B8ACF"></path>
                        <path d="M3.40546561,39.0843163 L68.93679,1.90082313 C73.4201946,-0.60488751 80.7296242,-0.662166101 85.2643136,1.90082313 L135.012808,30.1862786 C137.365921,31.5261005 139,32.8187024 139,34.9020693 C139,36.9854362 137.458742,38.3960523 135.012808,39.779385 L68.6533056,77.3571004 C64.7006781,79.5272162 56.7029793,79.5542684 52.801462,77.3571004 L3.40546561,49.2959328 C-1.16466851,46.6708248 -1.10554567,41.6439343 3.40546561,39.0843163 Z" id="Path-5-Copy" fill="#92A6ED"></path>
                    </g>
                    <path d="M9.07071141,137.972229 L68.9850652,103.927296 C73.0841779,101.633085 79.7670849,101.580641 83.9130867,103.927296 L129.397425,129.825251 C131.548842,131.051982 133.042857,132.235479 133.042857,134.142994 C133.042857,136.05051 131.633707,137.34206 129.397425,138.608629 L68.7258794,173.014509 C65.1120485,175.001452 57.7998668,175.02622 54.2327652,173.014509 L9.07071141,147.32191 C4.89230307,144.918381 4.94635825,140.315797 9.07071141,137.972229 Z" id="Path-5-Copy-2" fill="#000000" opacity="0.394474638"></path>
                    <g id="Group-2-Copy" transform="translate(0.000000, 71.000000)">
                        <path d="M6.30899847e-05,44.0308562 C2.98899945,42.3603824 49.3223118,39.3703037 139,35.0606199 C139,46.4688971 139,52.8532205 139,54.2135901 C139,56.2541445 137.325778,57.5511985 135.012808,58.8593316 L68.6533056,96.437047 C64.7006781,98.6071628 56.7029793,98.634215 52.801462,96.437047 L3.40546561,68.3758794 C1.11800153,67.0619485 -0.00971900491,65.1463117 6.3089985e-05,63.239518 C0.00657081913,61.9709864 0.00657081913,55.5680991 6.30899847e-05,44.0308562 Z" id="Path-5" fill="#7B8ACF"></path>
                        <path d="M3.40546561,39.0843163 L68.93679,1.90082313 C73.4201946,-0.60488751 80.7296242,-0.662166101 85.2643136,1.90082313 L135.012808,30.1862786 C137.365921,31.5261005 139,32.8187024 139,34.9020693 C139,36.9854362 137.458742,38.3960523 135.012808,39.779385 L68.6533056,77.3571004 C64.7006781,79.5272162 56.7029793,79.5542684 52.801462,77.3571004 L3.40546561,49.2959328 C-1.16466851,46.6708248 -1.10554567,41.6439343 3.40546561,39.0843163 Z" id="Path-5-Copy" fill="#92A6ED"></path>
                    </g>
                    <path d="M9.07071141,110.766622 L68.9850652,76.7216881 C73.0841779,74.4274778 79.7670849,74.375034 83.9130867,76.7216881 L129.397425,102.619644 C131.548842,103.846375 133.042857,105.029871 133.042857,106.937387 C133.042857,108.844902 131.633707,110.136452 129.397425,111.403021 L68.7258794,145.808902 C65.1120485,147.795844 57.7998668,147.820613 54.2327652,145.808902 L9.07071141,120.116303 C4.89230307,117.712773 4.94635825,113.110189 9.07071141,110.766622 Z" id="Path-5-Copy" fill="#000000" opacity="0.394474638"></path>
                    <g id="Group-2-Copy-2" transform="translate(0.000000, 42.467290)">
                        <path d="M6.30899847e-05,44.0308562 C2.98899945,42.3603824 49.3223118,39.3703037 139,35.0606199 C139,46.4688971 139,52.8532205 139,54.2135901 C139,56.2541445 137.325778,57.5511985 135.012808,58.8593316 L68.6533056,96.437047 C64.7006781,98.6071628 56.7029793,98.634215 52.801462,96.437047 L3.40546561,68.3758794 C1.11800153,67.0619485 -0.00971900491,65.1463117 6.3089985e-05,63.239518 C0.00657081913,61.9709864 0.00657081913,55.5680991 6.30899847e-05,44.0308562 Z" id="Path-5" fill="#7B8ACF"></path>
                        <path d="M3.40546561,39.0843163 L68.93679,1.90082313 C73.4201946,-0.60488751 80.7296242,-0.662166101 85.2643136,1.90082313 L135.012808,30.1862786 C137.365921,31.5261005 139,32.8187024 139,34.9020693 C139,36.9854362 137.458742,38.3960523 135.012808,39.779385 L68.6533056,77.3571004 C64.7006781,79.5272162 56.7029793,79.5542684 52.801462,77.3571004 L3.40546561,49.2959328 C-1.16466851,46.6708248 -1.10554567,41.6439343 3.40546561,39.0843163 Z" id="Path-5-Copy" fill="#92A6ED"></path>
                    </g>
                    <g id="Group-9" transform="translate(12.576190, 96.214953)">
                        <g id="Group-8" transform="translate(62.113527, 25.265996)" fill="#FFED0E">
                            <path d="M0.976749516,34.7973176 C-0.140457612,34.6633888 -0.121648688,33.238572 0.16639888,32.3316307 C0.454446448,31.4246894 1.38169351,30.3133663 2.27543357,30.3192178 C3.16917363,30.3250694 3.8707711,31.1014705 3.5568676,32.5156048 C3.2429641,33.9297391 2.09395664,34.9312464 0.976749516,34.7973176 Z" id="Oval-10-Copy-3"></path>
                            <path d="M0.976749516,62.8706461 C-0.140457612,62.7367173 -0.121648688,61.3119006 0.16639888,60.4049592 C0.454446448,59.4980179 1.38169351,58.3866948 2.27543357,58.3925464 C3.16917363,58.3983979 3.8707711,59.174799 3.5568676,60.5889333 C3.2429641,62.0030676 2.09395664,63.0045749 0.976749516,62.8706461 Z" id="Oval-10-Copy-9"></path>
                            <path d="M0.976749516,7.2854556 C-0.140457612,7.15152682 -0.121648688,5.72671005 0.16639888,4.81976873 C0.454446448,3.91282741 1.38169351,2.80150432 2.27543357,2.80735586 C3.16917363,2.81320741 3.8707711,3.58960852 3.5568676,5.00374282 C3.2429641,6.41787712 2.09395664,7.41938438 0.976749516,7.2854556 Z" id="Oval-10-Copy-6"></path>
                            <path d="M5.45340008,31.9899847 C4.33619295,31.8560559 4.35500188,30.4312392 4.64304944,29.5242978 C4.93109701,28.6173565 5.85834407,27.5060334 6.75208414,27.511885 C7.6458242,27.5177365 8.34742167,28.2941376 8.03351816,29.7082719 C7.71961466,31.1224062 6.57060721,32.1239135 5.45340008,31.9899847 Z" id="Oval-10-Copy-4"></path>
                            <path d="M5.45340008,4.47812275 C4.33619295,4.34419397 4.35500188,2.9193772 4.64304944,2.01243588 C4.93109701,1.10549456 5.85834407,-0.00582853722 6.75208414,2.30107636e-05 C7.6458242,0.00587455875 8.34742167,0.782275667 8.03351816,2.19640996 C7.71961466,3.61054426 6.57060721,4.61205153 5.45340008,4.47812275 Z" id="Oval-10-Copy-7"></path>
                            <path d="M9.93005064,29.1826519 C8.81284352,29.0487231 8.83165244,27.6239063 9.11970001,26.716965 C9.40774758,25.8100237 10.3349946,24.6987006 11.2287347,24.7045521 C12.1224748,24.7104037 12.8240722,25.4868048 12.5101687,26.9009391 C12.1962652,28.3150734 11.0472578,29.3165806 9.93005064,29.1826519 Z" id="Oval-10-Copy-5"></path>
                            <path d="M9.93005064,57.2559804 C8.81284352,57.1220516 8.83165244,55.6972349 9.11970001,54.7902935 C9.40774758,53.8833522 10.3349946,52.7720291 11.2287347,52.7778807 C12.1224748,52.7837322 12.8240722,53.5601333 12.5101687,54.9742676 C12.1962652,56.3884019 11.0472578,57.3899092 9.93005064,57.2559804 Z" id="Oval-10-Copy-11"></path>
                        </g>
                        <g id="Group-7">
                            <g id="Line" stroke-linecap="round">
                                <use fill="black" fill-opacity="1" filter="url(#filter-4)" xlink:href="#path-3"></use>
                                <use stroke="#FFFFFF" stroke-width="1" xlink:href="#path-3"></use>
                            </g>
                            <g id="Line-Copy-29" stroke-linecap="round">
                                <use fill="black" fill-opacity="1" filter="url(#filter-6)" xlink:href="#path-5"></use>
                                <use stroke="#C5E0FF" stroke-width="1" xlink:href="#path-5"></use>
                            </g>
                            <g id="Line-Copy-30" stroke-linecap="round">
                                <use fill="black" fill-opacity="1" filter="url(#filter-8)" xlink:href="#path-7"></use>
                                <use stroke="#C5E0FF" stroke-width="1" xlink:href="#path-7"></use>
                            </g>
                            <path d="M32.7355072,19.9320633 L32.7355072,38.5368662" id="Line-3" stroke="#6C78A2" stroke-linecap="round"></path>
                            <path d="M32.7355072,48.0053918 L32.7355072,66.6101947" id="Line-3-Copy-2" stroke="#6C78A2" stroke-linecap="round"></path>
                            <path d="M32.7355072,76.0787203 L32.7355072,94.6835233" id="Line-3-Copy-4" stroke="#6C78A2" stroke-linecap="round"></path>
                            <path d="M0.27979066,1.40366643 L0.27979066,20.0084693" id="Line-3-Copy" stroke="#6C78A2" stroke-linecap="round"></path>
                            <path d="M0.27979066,29.476995 L0.27979066,48.0817979" id="Line-3-Copy-3" stroke="#6C78A2" stroke-linecap="round"></path>
                            <path d="M0.27979066,57.5503235 L0.27979066,76.1551264" id="Line-3-Copy-5" stroke="#6C78A2" stroke-linecap="round"></path>
                            <path d="M0.27979066,10.9485981 L32.7355072,29.476995" id="Line-4" stroke="#6C78A2" stroke-linecap="square"></path>
                            <path d="M0.27979066,39.0219267 L32.7355072,57.5503235" id="Line-4-Copy" stroke="#6C78A2" stroke-linecap="square"></path>
                            <path d="M0.27979066,67.0952552 L32.7355072,85.623652" id="Line-4-Copy-2" stroke="#6C78A2" stroke-linecap="square"></path>
                        </g>
                    </g>
                    <path d="M38.876696,98.8159306 L103.140665,62.7521792 C104.057143,62.2378684 105.177616,62.2480995 106.08455,62.7790599 L106.08455,62.7790599 C106.547542,63.0501165 106.703136,63.6451804 106.43208,64.1081724 C106.344722,64.2573884 106.21912,64.3805838 106.068242,64.465039 L41.6947624,100.498628 C40.8091923,100.994333 39.7263013,100.979324 38.8548096,100.459266 L38.8548096,100.459266 C38.4045133,100.190554 38.25731,99.6076831 38.5260219,99.1573867 C38.6110636,99.0148774 38.7319724,98.8971468 38.876696,98.8159306 Z" id="Rectangle" fill-opacity="0.400000006" fill="#1B1D27"></path>
                    <g id="Group-15" transform="translate(38.390476, 0.000000)">
                        <path d="M-7.95807864e-13,84.0806127 L-7.95807864e-13,46.3197428 C-7.95807864e-13,36.4431571 -7.95807864e-13,36.471051 8.12974695,31.678209 C30.4546094,18.9620751 47.1766265,9.35785327 58.2957982,2.8655434 C61.7750927,0.834037961 63.6692862,-0.269329395 64.7005208,0.0564673321 L67.0965094,1.23983451 C67.3146434,2.55576052 65.9328448,5.21159782 65.9328448,8.20207215 L65.9328448,46.4649565 C65.9328448,56.2145623 65.9328448,56.1878223 58.3585411,60.4612721 L8.9626272,88.7118364 C6.90661913,89.8746441 4.57857383,92.4809557 3.35765957,93.0540215 L0.855141432,91.741672 C-7.95807864e-13,90.9176922 -7.95807864e-13,88.5108219 -7.95807864e-13,84.0806127 Z" id="Path-14-Copy" fill="#7B8ACF"></path>
                        <path d="M2.23528493,85.2078506 L2.23528493,47.4469807 C2.23528493,37.570395 2.23528493,37.5982889 10.3650319,32.8054469 C32.6898943,20.0893131 49.4119114,10.4850912 60.5310831,3.99278133 C68.1681298,-0.466370332 68.1681298,-0.453735076 68.1681298,9.32931008 L68.1681298,47.5921944 C68.1681298,57.3418002 68.1681298,57.3150602 60.5938261,61.5885101 L11.1979121,89.8390743 C2.23528493,94.9080289 2.23528493,94.9030489 2.23528493,85.2078506 Z" id="Path-14" fill="#5F65A5"></path>
                    </g>
                    <path d="M46.6131075,60.7673389 L100.32975,29.4756517" id="Line-9-Copy" stroke="#767CC1" stroke-linecap="round"></path>
                    <path d="M46.6131075,75.3654697 L100.32975,44.0737826" id="Line-9-Copy-2" stroke="#767CC1" stroke-linecap="round"></path>
                    <path d="M46.6131075,83.991638 L100.32975,52.6999508" id="Line-9-Copy-3" stroke="#767CC1" stroke-linecap="round"></path>
                    <path d="M51.2503401,69.388518 L58.6258503,50.0507343" id="Line-6" stroke="#F8E71C" stroke-linecap="round"></path>
                    <path d="M58.5312925,50.0507343 L69.8782313,53.4632844" id="Line-7" stroke="#F8E71C" stroke-linecap="round"></path>
                    <path d="M69.7826885,53.4661569 L96.3554067,16.8702917" id="Line-8" stroke="#F8E71C" stroke-linecap="round"></path>
                    <path d="M46.6131075,44.1785539 L100.32975,12.8868667" id="Line-9" stroke="#767CC1" stroke-linecap="round"></path>
                    <polygon id="Path-15" fill="url(#linearGradient-9)" points="51.6285714 69.107222 58.8926752 49.887753 70.0519271 53.4503955 96.2270679 16.588785 96.6380952 54.2607273 51.6285714 80.953271"></polygon>
                    <path d="M100.303531,59.0507544 C99.8964386,58.9913783 99.9032922,58.3596991 100.008252,57.9576152 C100.113212,57.5555312 100.451086,57.0628365 100.77675,57.0654308 C101.102415,57.068025 101.358065,57.4122352 101.243684,58.0391784 C101.129303,58.6661216 100.710623,59.1101305 100.303531,59.0507544 Z" id="Oval-10-Copy-11" fill="#FFED0E"></path>
                    <path d="M96.9940069,60.3778572 C96.5869148,60.3184811 96.5937684,59.6868019 96.6987283,59.284718 C96.8036882,58.882634 97.141562,58.3899393 97.4672264,58.3925336 C97.7928908,58.3951278 98.0485415,58.739338 97.9341602,59.3662812 C97.8197788,59.9932244 97.4010991,60.4372333 96.9940069,60.3778572 Z" id="Oval-10-Copy-13" fill="#FFED0E"></path>
                    <ellipse id="Oval" fill="#F9EB26" cx="96.3071429" cy="17.5841121" rx="1" ry="1"></ellipse>
                    <path d="M46.5980952,42.135514 L48.9809524,40.4766355" id="Line-10" stroke="#F9F9FF" stroke-width="2" stroke-linecap="round"></path>
                    <path d="M46.609127,58.1436916 L49.3670635,56.6507009" id="Line-10-Copy" stroke="#FFFFFF" stroke-width="2" stroke-linecap="round"></path>
                    <path d="M46.6275132,72.7141745 L51.3343915,69.9493769" id="Line-10-Copy-2" stroke="#ADB4FF" stroke-linecap="round"></path>
                    <path d="M46.609127,80.7044393 L49.3670635,79.2114486" id="Line-10-Copy-3" stroke="#8792FF" stroke-linecap="round"></path>
                </g>
            </g>
        </g>
    </g>
</svg>